<svg width="24" height="24" viewBox="0 0 24 24" fill="none" xmlns="http://www.w3.org/2000/svg">
<path d="M12 16C14.2091 16 16 14.2091 16 12C16 9.79086 14.2091 8 12 8C9.79086 8 8 9.79086 8 12C8 14.2091 9.79086 16 12 16Z" stroke="#B1AFF3" stroke-width="2" stroke-miterlimit="10" stroke-linecap="square"/>
<path d="M16 21.1679C14.0265 22.0292 11.8277 22.2305 9.73059 21.7418C7.6335 21.2531 5.75016 20.1006 4.36066 18.4556C2.97117 16.8107 2.14975 14.7612 2.01858 12.6119C1.88741 10.4626 2.45349 8.32838 3.63263 6.52665C4.81177 4.72493 6.54098 3.35193 8.56308 2.61187C10.5852 1.8718 12.7922 1.8042 14.8558 2.41912C16.9194 3.03405 18.7294 4.29864 20.0166 6.02482C21.3038 7.751 21.9994 9.84657 22 11.9999V12.9999C22 13.7955 21.6839 14.5586 21.1213 15.1212C20.5587 15.6838 19.7957 15.9999 19 15.9999C18.2044 15.9999 17.4413 15.6838 16.8787 15.1212C16.3161 14.5586 16 13.7955 16 12.9999V7.99984" stroke="#B1AFF3" stroke-width="2" stroke-miterlimit="10" stroke-linecap="square"/>
</svg>
