<svg width="24" height="24" viewBox="0 0 24 24" fill="none" xmlns="http://www.w3.org/2000/svg">
<path d="M12 16C14.2091 16 16 14.2091 16 12C16 9.79086 14.2091 8 12 8C9.79086 8 8 9.79086 8 12C8 14.2091 9.79086 16 12 16Z" stroke="url(#paint0_linear)" stroke-width="2" stroke-miterlimit="10" stroke-linecap="square"/>
<path d="M16 21.168C14.0265 22.0293 11.8277 22.2306 9.73059 21.7419C7.6335 21.2532 5.75016 20.1007 4.36066 18.4557C2.97117 16.8108 2.14975 14.7613 2.01858 12.612C1.88741 10.4627 2.45349 8.3285 3.63263 6.52677C4.81177 4.72505 6.54098 3.35205 8.56308 2.61199C10.5852 1.87192 12.7922 1.80432 14.8558 2.41924C16.9194 3.03417 18.7294 4.29876 20.0166 6.02494C21.3038 7.75112 21.9994 9.84669 22 12V13C22 13.7956 21.6839 14.5587 21.1213 15.1213C20.5587 15.6839 19.7957 16 19 16C18.2044 16 17.4413 15.6839 16.8787 15.1213C16.3161 14.5587 16 13.7956 16 13V7.99996" stroke="url(#paint1_linear)" stroke-width="2" stroke-miterlimit="10" stroke-linecap="square"/>
<defs>
<linearGradient id="paint0_linear" x1="12" y1="8" x2="12" y2="16" gradientUnits="userSpaceOnUse">
<stop stop-color="#9795EF"/>
<stop offset="1" stop-color="#F9C5D1"/>
</linearGradient>
<linearGradient id="paint1_linear" x1="12" y1="2.00281" x2="12" y2="22.0028" gradientUnits="userSpaceOnUse">
<stop stop-color="#9795EF"/>
<stop offset="1" stop-color="#F9C5D1"/>
</linearGradient>
</defs>
</svg>
