<?xml version="1.0" encoding="utf-8"?>
<!-- Generator: Adobe Illustrator 25.0.0, SVG Export Plug-In . SVG Version: 6.00 Build 0)  -->
<svg version="1.1" id="Layer_1" xmlns="http://www.w3.org/2000/svg" xmlns:xlink="http://www.w3.org/1999/xlink" x="0px" y="0px"
	 viewBox="0 0 4000 4000" style="enable-background:new 0 0 4000 4000;" xml:space="preserve">
<style type="text/css">
	.st0{clip-path:url(#SVGID_2_);}
	.st1{fill:#FFFFFF;}
	.st2{opacity:0.6;}
	.st3{fill:#45414F;}
	.st4{fill:#111111;}
	.st5{opacity:0.3;}
	.st6{fill:#F47AC9;}
	.st7{opacity:0.5;}
	.st8{fill:#EDB38B;}
	.st9{fill:#F18688;}
	.st10{fill:#ED7279;}
	.st11{opacity:0.2;}
	.st12{clip-path:url(#SVGID_4_);}
	.st13{fill:#FFB531;}
	.st14{fill:#F962BB;}
	.st15{fill:#390176;}
	.st16{fill:#F73954;}
	.st17{fill:#FEFEFE;}
	.st18{fill:#DE9871;}
	.st19{fill:#FDFDFD;}
	.st20{fill:#D6D5D9;}
	.st21{fill:#FCFCFC;}
	.st22{fill:#785352;}
	.st23{fill:#8C6867;}
	.st24{fill:#F5BCBB;}
	.st25{fill:#F7E57F;}
	.st26{fill:#F5C564;}
	.st27{fill:#F16F70;}
</style>
<g>
	<defs>
		<rect id="SVGID_1_" x="817.8" y="2785.13" width="2303.99" height="341.38"/>
	</defs>
	<clipPath id="SVGID_2_">
		<use xlink:href="#SVGID_1_"  style="overflow:visible;"/>
	</clipPath>
	<g class="st0">
		<g>
			<g>
				<path class="st1" d="M2939.52,4297.46v0.11l-55.84,531.76c-6.25,60.5-26.59,119.09-62.08,168.35
					c-93.45,129.68-252.05,158.82-396.99,77.77c-127.03-70.99-202.89-207.55-204.59-353.02c-0.53-44.6,0.21-88.15,1.59-128.3
					c0.95-0.11,2.01-0.32,2.97-0.53h-2.97v0.53c-146.42,27.65-292.84,31.26-439.26,10.91c-21.51-2.97-42.91-6.46-64.31-10.49v-0.95
					h-5.62c1.91,0.32,3.71,0.74,5.62,0.95c1.38,40.05,2.12,83.38,1.59,127.88c-1.8,145.47-77.55,282.04-204.59,353.02
					c-51.07,28.5-103.83,43.44-154.79,45.03c-93.76,3.07-181.6-38.78-242.2-122.79c-35.6-49.27-55.83-107.86-62.19-168.35
					l-55.73-531.76v-0.11c-244.11-406.63-131.48-1052.81,61.24-1469.93h1816.92C3071,3244.64,3183.52,3890.93,2939.52,4297.46z"/>
			</g>
			<g>
				<path class="st1" d="M1718.04,4593.58v0.95c-1.91-0.21-3.71-0.64-5.62-0.95H1718.04z"/>
			</g>
			<g>
				<path class="st1" d="M2224.58,4593.58c-0.95,0.21-2.01,0.42-2.97,0.53v-0.53H2224.58z"/>
			</g>
			<g>
				<path class="st1" d="M1712.42,4593.58h5.62v0.95C1716.13,4594.32,1714.33,4593.9,1712.42,4593.58z"/>
			</g>
			<g>
				<path class="st1" d="M2224.58,4593.58c-0.95,0.21-2.01,0.42-2.97,0.53v-0.53H2224.58z"/>
			</g>
		</g>
		<g class="st2">
			<g>
				<path class="st1" d="M1408.77,5114.96c-111.46,21.61-219.84-18.86-290.72-117.29c-35.6-49.27-55.83-107.86-62.19-168.35
					l-55.73-531.76v-0.11c-244.11-406.63-131.48-1052.81,61.24-1469.93h114.74c-192.72,417.12-305.35,1063.3-61.24,1469.93v0.11
					l55.73,531.76c6.36,60.5,26.59,119.09,62.19,168.35C1278.77,5061.45,1340.54,5100.97,1408.77,5114.96z"/>
			</g>
			<g>
				<path class="st1" d="M2645.62,5114.96c-70.25,14.41-147.37,1.59-221.01-39.52c-127.03-70.99-202.89-207.55-204.59-353.02
					c-0.42-38.46,0-76.18,1.06-111.56c7.73-0.74,15.36-1.59,23.1-2.65l-10.49-202.15l0,0c58.07,0,104.88,47.56,103.97,105.62
					l-1.3,82.44c-1.39,40.61-2.14,84.69-1.57,129.82c1.81,144.88,77.91,280.61,204.35,351.38
					C2574.27,5094.98,2610.05,5108.16,2645.62,5114.96z"/>
			</g>
		</g>
		<g>
			<ellipse class="st1" cx="1968.49" cy="3749.65" rx="454.24" ry="517.75"/>
		</g>
		<g>
			<path class="st3" d="M1139.48,4509.31c-10.03,0-20.09-3.54-28.17-10.74c-451.51-402.32-300.24-1230.4-88.41-1688.83
				c9.81-21.25,34.98-30.49,56.25-20.69c21.25,9.82,30.51,35,20.69,56.25c-120.67,261.15-192.31,568.79-196.57,844.04
				c-3.56,229.64,39.45,545.46,264.43,745.95c17.48,15.57,19.02,42.36,3.45,59.83C1162.77,4504.52,1151.16,4509.31,1139.48,4509.31z
				"/>
		</g>
		<g>
			<path class="st4" d="M1350.82,5163.03c-103.9,0-200.72-48.39-267.17-140.54c-38.39-53.23-62.58-118.49-69.94-188.71
				l-55.77-531.91c-2.44-23.28,14.46-44.13,37.74-46.57c23.19-2.42,44.12,14.46,46.57,37.73l55.77,531.91
				c5.82,55.54,24.64,106.71,54.39,147.97c80.12,111.12,214.33,136.85,341.93,65.53c111.2-62.15,181.29-183.46,182.91-316.59
				c2.11-172.51-15.43-330.56-15.61-332.14c-2.62-23.25,14.12-44.23,37.36-46.85c23.21-2.6,44.23,14.11,46.86,37.36
				c0.75,6.64,18.32,164.66,16.14,342.66c-1.98,163.38-88.71,312.64-226.33,389.55C1474.77,5146.47,1411.58,5163.03,1350.82,5163.03
				z"/>
		</g>
		<g>
			<path class="st4" d="M1221.35,4903.92c2.92,41.47,18.42,81.31,39.78,115.44c10.76,16.98,23.38,32.67,37.21,44.8
				c6.96,5.83,14.04,11.22,20.88,14.45l4.99,2.42c1.6,0.54,3.11,0.79,4.58,1.27c3.12,1.39,5.22,0.38,7.42,1.02l8.83,2.59
				c19.56,5.73,30.77,26.23,25.04,45.79c-5.73,19.56-26.23,30.77-45.79,25.03c-0.45-0.13-1.04-0.32-1.47-0.47
				c-8.15-2.76-17.09-5.34-23.49-9.53c-3.41-1.96-6.93-3.9-10.09-6l-8.62-6.71c-11.24-9.06-19.79-19.13-27.69-29.27
				c-15.28-20.49-26.1-42.18-34.57-64.36c-8.39-22.2-14.24-44.98-17.5-68.05c-3.21-23.04-3.86-46.46-0.66-69.43
				c0.81-5.82,6.18-9.88,12-9.07c5.07,0.7,8.81,4.87,9.15,9.79L1221.35,4903.92z"/>
		</g>
		<g>
			<path class="st4" d="M1503.96,4902.93c3.19,22.97,2.54,46.38-0.67,69.43c-3.26,23.07-9.11,45.85-17.5,68.05
				c-8.48,22.18-19.29,43.87-34.57,64.36c-7.9,10.14-16.45,20.21-27.69,29.27l-8.62,6.71c-3.16,2.1-6.68,4.03-10.09,6
				c-6.4,4.19-15.34,6.77-23.49,9.53c-19.3,6.55-40.25-3.79-46.8-23.09c-6.55-19.3,3.79-40.25,23.09-46.8
				c0.45-0.15,0.89-0.29,1.34-0.43l8.97-2.63c2.2-0.64,4.31,0.37,7.42-1.02c1.48-0.47,2.98-0.73,4.58-1.27l4.99-2.42
				c6.84-3.23,13.92-8.62,20.88-14.45c13.83-12.13,26.44-27.82,37.21-44.8c21.36-34.13,36.87-73.96,39.78-115.44l0.02-0.27
				c0.41-5.86,5.49-10.28,11.36-9.87C1499.27,4894.14,1503.28,4898.05,1503.96,4902.93z"/>
		</g>
		<g>
			<path class="st3" d="M2800.12,4509.31c-11.67,0-23.29-4.79-31.66-14.18c-15.57-17.48-14.03-44.27,3.45-59.84
				c224.99-200.49,267.98-516.31,264.42-745.95c-4.26-275.25-75.9-582.89-196.56-844.05c-9.82-21.25-0.56-46.43,20.69-56.25
				c21.23-9.81,46.44-0.55,56.25,20.7c211.82,458.43,363.07,1286.5-88.41,1688.82C2820.22,4505.77,2810.14,4509.31,2800.12,4509.31z
				"/>
		</g>
		<g>
			<path class="st4" d="M2588.77,5163.03c-60.77,0-123.93-16.55-184.85-50.6c-137.61-76.9-224.33-226.17-226.33-389.55
				c-2.17-178,15.39-336.02,16.14-342.66c2.63-23.26,23.52-39.97,46.85-37.36c23.26,2.62,39.99,23.6,37.37,46.85
				c-0.18,1.58-17.71,159.63-15.61,332.13c1.63,133.13,71.72,254.45,182.92,316.6c127.58,71.31,261.8,45.57,341.93-65.53
				c29.75-41.27,48.57-92.43,54.39-147.97l55.77-531.91c2.44-23.27,23.34-40.16,46.57-37.73c23.28,2.44,40.18,23.29,37.74,46.57
				l-55.77,531.91c-7.37,70.22-31.55,135.47-69.94,188.71C2789.5,5114.63,2692.65,5163.02,2588.77,5163.03z"/>
		</g>
		<g>
			<path class="st4" d="M2739.42,4902.93c3.19,22.97,2.54,46.38-0.67,69.43c-3.26,23.07-9.11,45.85-17.5,68.05
				c-8.47,22.18-19.29,43.87-34.57,64.36c-7.9,10.14-16.45,20.21-27.69,29.27l-8.62,6.71c-3.17,2.1-6.68,4.03-10.09,6
				c-6.4,4.19-15.34,6.77-23.49,9.53c-19.3,6.55-40.25-3.79-46.8-23.09c-6.55-19.3,3.79-40.25,23.09-46.8
				c0.44-0.15,0.89-0.29,1.34-0.43l8.97-2.63c2.2-0.64,4.3,0.37,7.42-1.02c1.48-0.47,2.98-0.73,4.58-1.27l4.99-2.42
				c6.83-3.23,13.92-8.62,20.88-14.45c13.83-12.13,26.44-27.82,37.21-44.8c21.36-34.13,36.87-73.96,39.78-115.44l0.02-0.27
				c0.41-5.86,5.49-10.28,11.36-9.87C2734.73,4894.14,2738.74,4898.05,2739.42,4902.93z"/>
		</g>
		<g>
			<path class="st4" d="M2456.81,4903.92c2.92,41.47,18.42,81.31,39.78,115.44c10.76,16.98,23.38,32.67,37.21,44.8
				c6.95,5.83,14.04,11.22,20.88,14.45l4.99,2.42c1.6,0.54,3.11,0.79,4.58,1.27c3.11,1.39,5.22,0.38,7.42,1.02l8.83,2.59
				c19.56,5.73,30.77,26.23,25.04,45.79c-5.73,19.56-26.23,30.77-45.79,25.03c-0.45-0.13-1.04-0.32-1.48-0.47
				c-8.15-2.76-17.09-5.34-23.49-9.53c-3.41-1.96-6.93-3.9-10.09-6l-8.62-6.71c-11.24-9.06-19.79-19.13-27.69-29.27
				c-15.28-20.49-26.09-42.18-34.57-64.36c-8.39-22.2-14.23-44.98-17.5-68.05c-3.21-23.04-3.86-46.46-0.67-69.43
				c0.81-5.82,6.18-9.88,12-9.07c5.07,0.7,8.81,4.87,9.15,9.79L2456.81,4903.92z"/>
		</g>
		<g>
			<path class="st4" d="M1968.49,4654.96c-87.89,0-175.74-8.33-263.02-25c-20.11-3.84-33.31-23.26-29.47-43.38
				c3.85-20.12,23.3-33.29,43.38-29.47c165.27,31.56,332.9,31.56,498.21,0c20.11-3.82,39.53,9.35,43.38,29.47
				c3.84,20.11-9.36,39.54-29.47,43.38C2144.26,4646.62,2056.36,4654.96,1968.49,4654.96z"/>
		</g>
		<g class="st5">
			<path class="st6" d="M1718.04,4594.54c1.38,40.05,2.12,83.38,1.59,127.88c-1.8,145.47-77.55,282.04-204.59,353.02
				c-51.07,28.5-103.83,43.44-154.79,45.03c186.23-95.3,177.7-498.88,163.39-683.37c-3.42-44.15,38.96-77.74,81.25-64.6
				c73.62,22.89,107.53,33.55,107.53,33.55l35.65,193.76C1726.56,4596.85,1739.44,4598.56,1718.04,4594.54z"/>
		</g>
		<g class="st5">
			<path class="st6" d="M1712.42,4406.05c0,0,306.02,47.57,487.9,0v199.71l-452.24-5.94L1712.42,4406.05z"/>
		</g>
		<g class="st7">
			<path class="st8" d="M2990.37,3355.19c4.53-2.18-116.45-429.56-116.38-429.6c-14.88-37.96-30.43-74.7-46.6-109.71l-1725.79,11.64
				l-54.41,143.09c0.02,0.06-0.02-0.06,0,0c673.95,277.66,1185.2,159.51,1526.78,64.23c42.63-11.89,87,12.37,100.34,54.57
				c125.15,395.95,163.12,886.38-35.73,1217.66v0.1l-55.83,531.76c-6.25,60.5-26.59,119.09-62.09,168.35
				c-30.94,42.91-68.97,74.8-111.24,95.35c134.66,58.06,275.47,23.73,361.29-95.35c35.49-49.26,55.83-107.86,62.08-168.35
				l55.84-531.76v-0.1C3115.36,3929.31,3069.03,3690.89,2990.37,3355.19z"/>
			<path class="st8" d="M2888.62,4307.07c226.74-377.76,186.55-640.94,107.89-976.64c-67.81-309.1-122.59-404.81-122.52-404.84"/>
		</g>
	</g>
</g>
<g>
	<g>
		<path class="st1" d="M3484.19,1951.1c0,155.53-34.75,294.54-98.21,416.59c-45.77,88.04-106.48,167.19-179.9,237.32
			c-25.32,24.26-52.23,47.47-80.52,69.5c0,0,0,0.11-0.11,0.11c-282.88,221.01-708.16,334.37-1183.66,334.37
			c-61.66,0-122.58-1.91-182.34-5.72h-0.11c-401.02-25.53-754.99-136.36-1001.22-328.65c-0.11,0-0.11-0.11-0.11-0.11
			c-24.26-18.96-47.57-38.67-69.71-59.33c-181.81-168.56-288.82-390.74-288.82-664.09c0-99.06,13.56-196.64,39.41-291.15
			c10.06-37.19,22.14-73.85,35.92-109.97l-2.33,1.8c34.54-300.79,71.62-593.42,133.92-870.37c29.24-130.21,64.2-256.93,107.01-379.3
			c54.67-156.06,242.41-217.83,377.81-123.22c194.31,135.83,382.37,327.17,490.44,486.73c108.17-21.83,220.9-33.48,337.13-33.48
			c64.63,0,128.3,3.6,191.03,10.49c66.64,7.42,132.22,18.54,196.22,33.16l-12.82-10.17c108.07-159.56,296.13-350.9,490.44-486.73
			c135.4-94.61,323.14-32.84,377.81,123.22c104.15,297.5,161.25,620.33,205.43,957.04c12.19,93.55,23.42,188.27,34.43,283.84
			C3454.94,1673.19,3484.19,1810.71,3484.19,1951.1z"/>
	</g>
	<g>
		<path class="st8" d="M1006.36,1172.79c0,275.04-202.36,497.96-452.08,497.96c-32.31,0-63.78-3.71-94.19-10.81
			c10.06-37.19,22.14-73.85,35.92-109.97l-2.33,1.8c34.54-300.79,71.62-593.42,133.92-870.37
			C842.46,719.97,1006.36,925.3,1006.36,1172.79z"/>
	</g>
	<g>
		<path class="st8" d="M3494.78,1951.1c0,155.53-34.75,294.54-98.21,416.59c-119.09,60.5-249.72,93.87-386.82,93.87
			c-557.61,0-1009.59-552.63-1009.59-1234.3c0-211.47,43.55-410.66,120.25-584.63c66.64,7.42,132.22,18.54,196.22,33.16
			l-12.82-10.17c108.07-159.56,296.13-350.9,490.44-486.73c135.4-94.61,323.14-32.84,377.81,123.22
			c104.15,297.5,161.25,620.33,205.43,957.04c12.19,93.55,23.42,188.27,34.43,283.84
			C3465.54,1673.19,3494.78,1810.71,3494.78,1951.1z"/>
	</g>
	<g class="st7">
		<path class="st8" d="M3464.58,1912.72c0,155.53-34.75,294.54-98.21,416.59c-45.77,88.04-106.48,167.19-179.9,237.33
			c-25.32,24.26-52.23,47.46-80.52,69.5c0,0,0,0.11-0.11,0.11c-282.88,221.01-708.16,334.37-1183.66,334.37
			c-61.66,0-122.58-1.91-182.34-5.72h-0.11c-224.61-14.3-434.39-55.31-618.85-122.58c-102.67-45.56-195.79-100.23-277.16-163.69
			c-0.11,0-0.11-0.11-0.11-0.11c-24.26-18.96-47.57-38.67-69.71-59.33c-17.48-16.21-34.33-32.95-50.43-50.22
			c230.44,129.68,523.28,205.86,846.74,226.41h0.11c59.75,3.81,120.67,5.72,182.34,5.72c475.5,0,900.78-113.37,1183.66-334.37
			c0.11,0,0.11-0.11,0.11-0.11c28.29-22.04,55.2-45.24,80.52-69.5c73.42-70.14,134.13-149.28,179.9-237.32
			c63.46-122.05,98.21-261.06,98.21-416.59c0-140.38-29.24-277.9-82.85-408.12c-11.02-95.57-22.25-190.28-34.43-283.84
			c-41.96-319.86-95.57-627.11-190.18-912.11c20.66-1.91,41.43-1.27,61.66,1.91c41.11,28.82,84.11,60.22,103.79,111.95
			c104.78,275.33,162.42,632.73,206.6,969.43c12.18,93.55,24.3,186.96,35.32,282.53
			C3448.58,1635.16,3464.58,1772.33,3464.58,1912.72z"/>
	</g>
	<g class="st2">
		<path class="st1" d="M1101.82,178.89c16.53,11.55,32.95,23.52,49.37,35.81c-130.85-62.83-292.42,0.95-342.43,143.88
			c-133.92,382.79-190.18,807.54-240.93,1249.67l2.33-1.8c-48.95,128.09-75.33,263.18-75.33,401.12
			c0,273.35,107.01,495.52,288.82,664.09c22.14,20.66,45.45,40.37,69.71,59.33c0,0,0,0.11,0.11,0.11
			c9.85,7.73,19.92,15.36,30.2,22.78c-40.47-24.69-78.93-51.07-114.96-79.25c-0.11,0-0.11-0.11-0.11-0.11
			c-24.26-18.96-47.57-38.67-69.71-59.33c-181.81-168.56-288.82-390.74-288.82-664.09c0-137.95,26.38-273.03,75.33-401.12l-2.33,1.8
			c50.75-442.13,107.01-866.87,240.93-1249.67C778.68,146.04,966.42,84.28,1101.82,178.89z"/>
	</g>
	<g class="st2">
		<path class="st1" d="M3114.21,208.87c-74.27-30.09-162.31-24.47-235.21,26.49c-172.05,120.27-339.21,284.06-450.26,430.78
			c-25.34,33.48-67.36,49.33-108.78,42.4c-0.23-0.04-0.46-0.08-0.69-0.11h-0.11c-6.36-11.76-13.35-24.37-20.13-36.55
			c5.83,1.27,11.76,2.54,17.59,3.92l-12.82-10.17c108.07-159.56,296.13-350.9,490.44-486.73
			C2897.97,106.42,3032.42,125.7,3114.21,208.87z"/>
	</g>
	<g>
		<path class="st9" d="M1194.1,800.91C1128.84,681.4,1044.4,568.14,983.58,492.6c-32.31-40.26-96.84-25.53-108.6,24.79
			c-29.67,126.82-71.41,340.84-77.45,563.12v0.11"/>
	</g>
	<g class="st2">
		<path class="st1" d="M1250.58,863.48l-279.11,186.47c-49.2,32.87-110.55,41.91-167.14,24.63h0l389.77-273.66
			C1128.84,681.4,1044.4,568.14,983.58,492.6c-0.21-0.32-0.42-0.53-0.74-0.74c23.52-28.5,70.14-31.57,96.1,0.74
			c50.43,62.64,130.35,167.55,193.38,269.7C1293.41,796.48,1283.98,841.16,1250.58,863.48z"/>
	</g>
	<g>
		<path class="st10" d="M1007.1,522.16c-2.12,4.24-3.81,8.79-4.98,13.77c-24.58,105.21-57.53,270.59-71.52,450.81l-133.07,93.87
			v-0.11c6.04-222.28,47.78-436.3,77.45-563.12c11.76-50.33,76.28-65.05,108.6-24.79C991.1,501.93,998.94,511.78,1007.1,522.16z"/>
	</g>
	<g>
		<path class="st9" d="M3098.54,1080.62v-0.11c-6.04-222.28-47.78-436.3-77.45-563.12c-11.76-50.33-76.28-65.05-108.6-24.79
			c-60.81,75.54-145.26,188.8-210.52,308.31"/>
	</g>
	<g class="st2">
		<path class="st1" d="M3098.54,1093.93L3098.54,1093.93l-0.86-40.01c-8.48-212.64-48.1-414.79-76.6-536.53
			c-2.12-9.32-6.15-17.38-11.34-24.16c32.1-9.64,69.72,8.05,78.4,45.35c26.59,113.69,62.9,297.46,74.48,494.43
			C3164.74,1068.88,3134.23,1098.07,3098.54,1093.93z"/>
	</g>
	<g>
		<path class="st10" d="M3032.31,567.09c-3.71,2.86-7.21,6.36-10.38,10.28c-59.86,74.38-142.71,185.41-207.45,302.91l-112.52-79.36
			c65.27-119.51,149.71-232.77,210.52-308.31c32.32-40.26,96.84-25.53,108.6,24.79C3024.69,532.76,3028.39,549.29,3032.31,567.09z"
			/>
	</g>
	<g>
		<g>
			<path class="st3" d="M2267.42,2109.76c1.34,34.62-5.57,72.33-28.59,105.06c-11.53,16.1-27.2,30.17-45.43,40
				c-18.23,9.88-38.7,15.2-59,16.74c-40.92,3.16-80.65-9.3-114.13-30.31c-16.79-10.61-31.95-23.79-45.18-38.81
				c-3.17-3.88-6.32-7.79-9.37-11.77l-4.3-6.19l-2.14-3.11c-0.68-1.01-1.73-2.53-1.13-1.53c2.11,3.16,6.15,5.09,8.98,4.96
				c2.83,0.11,6.87-1.77,9-4.92c0.61-1-0.45,0.52-1.14,1.53l-2.15,3.1l-4.33,6.17c-3.07,3.96-6.23,7.86-9.45,11.7
				c-13.31,14.95-28.51,28.08-45.37,38.57c-33.57,20.86-73.37,33.05-114.24,29.73c-20.28-1.66-40.72-7.04-58.89-17.02
				c-18.17-9.91-33.77-24.05-45.21-40.2c-22.88-32.82-29.6-70.55-28.14-105.16c0.25-5.92,5.26-10.51,11.17-10.26
				c4.63,0.2,8.45,3.3,9.77,7.49l0.1,0.33c9.62,30.63,22.72,59.11,43.03,77.23c19.77,18.4,44.44,26.32,70.04,24.92
				c25.56-1.03,51.43-11.24,72.99-26.53c10.76-7.75,20.67-16.66,28.93-26.83l5.98-7.75l6.56-9.59c11.5-16.89,32.1-26.93,51.51-26.65
				c19.41-0.22,39.97,9.95,51.39,26.89l6.52,9.62l5.96,7.76c8.21,10.2,18.06,19.19,28.8,26.95c21.47,15.41,47.3,25.68,72.83,26.87
				c25.58,1.51,50.27-6.27,70.12-24.56c20.42-17.99,33.66-46.41,43.46-76.98l0.1-0.31c1.81-5.64,7.85-8.75,13.49-6.94
				C2264.38,2101.37,2267.24,2105.39,2267.42,2109.76z"/>
		</g>
		<g>
			<path class="st3" d="M1799.43,2240.22c0,44.61,13.14,80.31,34.33,107.12c63.57,80.84,199.29,80.84,262.86,0
				c21.19-26.81,34.33-62.51,34.33-107.12c-64.31-12.93-120.68-36.55-165.81-75.12C1918.41,2207.06,1865.12,2236.09,1799.43,2240.22
				z"/>
		</g>
		<g>
			<path class="st9" d="M1833.76,2347.33c63.57,80.84,199.29,80.84,262.86,0C2033.15,2266.28,1897.22,2266.28,1833.76,2347.33z"/>
		</g>
		<g>
			<path class="st3" d="M1965.14,2445.01c-52.59,0-101.87-18.26-138.75-51.43c-29.24-26.29-64.08-74.23-64.08-153.34h74.16
				c0,90.22,64.63,130.6,128.67,130.6c64.04,0,128.67-40.38,128.67-130.6h74.16C2167.97,2374.68,2065.93,2445.01,1965.14,2445.01z"
				/>
		</g>
		<g>
			<ellipse class="st3" cx="2585.67" cy="1800.1" rx="226.12" ry="306.97"/>
		</g>
		<g>
			<ellipse class="st1" cx="2633.3" cy="1748.22" rx="68.68" ry="81.89"/>
		</g>
		<g>
			<ellipse class="st3" cx="1327.71" cy="1800.1" rx="226.12" ry="306.97"/>
		</g>
		<g>
			<path class="st3" d="M2096.25,2063.69c-0.1,42.59-58.89,76.98-131.3,76.8c-72.41-0.18-131.03-34.85-130.92-77.44
				c0.1-42.59,58.81-46.13,131.22-45.95C2037.66,2017.27,2096.36,2021.09,2096.25,2063.69z"/>
		</g>
		<g>
			<ellipse class="st1" cx="1280.09" cy="1748.22" rx="68.68" ry="81.89"/>
		</g>
	</g>
	<g>
		<path class="st3" d="M797.53,1117.7c-5.12,0-10.27-1.06-15.12-3.23c-13.35-5.97-21.95-19.23-21.95-33.85c0-0.34,0-0.78,0.01-1.11
			c5.98-220.11,45.94-431.76,78.41-570.56c8.69-37.23,37.27-65.63,74.55-74.1c37.16-8.44,75.18,4.78,99.07,34.54
			c60.7,75.41,147.16,191.09,214.15,313.75c4.75,8.7,5.82,18.95,2.96,28.45c-2.85,9.5-9.4,17.46-18.16,22.1
			c-133.73,70.78-264.68,163.16-389.19,274.57C815.32,1114.46,806.48,1117.7,797.53,1117.7z M935.69,506.53
			c-2.41,0-4.45,0.33-5.84,0.64c-4.57,1.04-15.55,4.94-18.76,18.66c-27.46,117.35-60.39,287.9-72.48,470.46
			c98.56-81.67,200.66-152.05,304.71-210c-61.33-105.75-135.2-204.08-188.62-270.44C948.6,508.26,941.17,506.53,935.69,506.53z"/>
	</g>
	<g>
		<path class="st3" d="M1952.38,3051.38c-445.51,0-830.49-95.2-1113.35-275.31C530.68,2579.73,367.7,2294.46,367.7,1951.1
			c0-136.2,24.62-271.86,73.2-403.38c0.02-0.26,0.05-0.52,0.08-0.78c50.79-442.48,107.59-871.72,243.03-1258.83
			c30.63-87.48,98.65-153.9,186.61-182.27c87.24-28.14,180.36-14.17,255.48,38.31c180.87,126.44,368.46,310.3,485.23,474.62
			c218.86-40.45,448.65-38.39,669.17,6.03c116.43-165.84,306.4-352.66,489.48-480.65c75.12-52.48,168.22-66.45,255.49-38.31
			c87.96,28.37,155.97,94.8,186.61,182.26c133.96,382.92,190.99,807.01,241.37,1244.39c55.56,136.96,83.72,277.76,83.72,418.6
			c0,343.36-163,628.63-471.38,824.98C2782.91,2956.18,2397.9,3051.38,1952.38,3051.38z M526.32,1546.66
			c0.96,6.86,0.25,14.03-2.35,20.89c-47.46,125.08-71.51,254.12-71.51,383.55c0,312.93,149.42,573.48,432.1,753.48
			c265.38,168.98,644.61,262.04,1067.83,262.04c423.23,0,802.47-93.06,1067.88-262.04c282.71-180,432.15-440.55,432.15-753.48
			c0-124.72-24.05-249.64-71.51-371.66c-5.36-6.22-8.99-14.06-9.99-22.84c-0.25-2.16-0.5-4.29-0.74-6.46
			c-0.26-1.52-0.44-3.06-0.53-4.61c-49.9-433.61-106.12-853.76-237.56-1229.44c-21.78-62.2-70.13-109.44-132.63-129.59
			c-61.77-19.93-127.72-10.05-180.91,27.12c-177.89,124.35-362.19,306.11-472.83,465.84c-1.59,10.41-7.03,19.94-15.38,26.63
			c-10,8.02-23.12,11.11-35.65,8.32c-228.13-50.41-467.85-52.88-694.03-7.26c-16.68,3.4-33.89-3.62-43.47-17.77
			c-109.78-162.08-298.04-348.82-479.63-475.76c-53.17-37.16-119.12-47.04-180.91-27.12c-62.49,20.16-110.83,67.4-132.62,129.61
			C632.46,692.1,576.26,1112.65,526.32,1546.66z"/>
	</g>
	<g>
		<path class="st3" d="M3098.55,1117.7c-8.23,0-16.41-2.74-23.13-8.09c-140.61-112.11-269.01-202.69-392.55-276.91
			c-17.05-10.24-22.98-32.1-13.45-49.56c66.96-122.62,153.43-238.32,214.18-313.79c23.85-29.71,61.81-42.95,99.04-34.5
			c37.29,8.47,65.86,36.87,74.56,74.1c29.81,127.53,76.23,549.72,78.2,567.63c1.62,14.89-5.86,29.29-18.98,36.52
			C3110.83,1116.19,3104.68,1117.7,3098.55,1117.7z M2751.84,787.88c95.89,59.28,194.76,128.17,299.85,208.95
			c-15.56-133.76-45.95-382.27-66.7-470.99c-3.21-13.73-14.19-17.63-18.77-18.67c-4.55-1.02-16.07-2.25-24.82,8.64
			C2887.68,582.57,2813.33,681.56,2751.84,787.88z"/>
	</g>
	<g class="st11">
		<path class="st1" d="M1799.37,787.46c-188.42,30.04-340.98,86.23-449.83,174.32c-38.59,31.23-23.4,93.64,25.06,104.4
			c217.81,48.35,386.11-3.67,487.17-191.97C1885.01,830.93,1847.87,779.72,1799.37,787.46z"/>
	</g>
	<g class="st11">
		<path class="st1" d="M1112.11,1265.36c-35.22-26.52-34.2-87.32,2.3-135.78c36.49-48.47,94.63-66.25,129.86-39.73
			c35.22,26.52,12.43,70.93-24.06,119.39C1183.71,1257.71,1147.33,1291.88,1112.11,1265.36z"/>
	</g>
	<g>
		<g>
			<path class="st3" d="M3216.71,2182.58c42.6-8.18,84.45-10.07,126.08-10.06c41.59,0.26,82.9,3,123.94,7.85
				c41.05,4.84,81.84,11.89,122.33,21.41c40.47,9.75,80.7,21.44,120.18,39.49c-42.61,8.26-84.47,10.17-126.09,10.14
				c-41.59-0.27-82.9-3-123.93-7.94c-41.04-4.93-81.83-11.97-122.32-21.49C3296.43,2212.21,3256.19,2200.54,3216.71,2182.58z"/>
		</g>
		<g>
			<path class="st3" d="M3197.88,2374.09c43.05,5.36,83.44,16.47,123.03,29.32c39.48,13.08,77.93,28.42,115.47,45.7
				c37.55,17.27,74.18,36.56,109.76,58.1c35.48,21.76,70.15,45.29,102.13,74.63c-43.08-5.28-83.48-16.38-123.06-29.24
				c-39.48-13.08-77.93-28.42-115.44-45.78c-37.52-17.35-74.14-36.63-109.72-58.18C3264.57,2426.87,3229.89,2403.36,3197.88,2374.09
				z"/>
		</g>
		<g>
			<path class="st3" d="M677.84,2176.39c-39.57,17.77-79.86,29.24-120.37,38.82c-40.54,9.32-81.36,16.17-122.42,20.9
				c-41.06,4.74-82.38,7.27-123.97,7.33c-41.62-0.17-83.47-2.29-126.04-10.76c39.56-17.85,79.85-29.35,120.36-38.9
				c40.54-9.32,81.36-16.17,122.43-20.81c41.07-4.66,82.38-7.19,123.98-7.25C593.44,2165.9,635.28,2168,677.84,2176.39z"/>
		</g>
		<g>
			<path class="st3" d="M695.74,2367.99c-27.74,32.14-58.76,58.86-90.76,83.94c-32.14,24.86-65.57,47.59-100.09,68.5
				c-34.52,20.92-70.2,39.93-107.15,56.82c-37.08,16.68-75.17,31.69-116.57,41.23c27.7-32.21,58.7-58.95,90.72-84.01
				c32.14-24.86,65.57-47.59,100.14-68.43c34.57-20.84,70.24-39.86,107.2-56.74C616.3,2392.63,654.38,2377.6,695.74,2367.99z"/>
		</g>
	</g>
</g>
<g>
	<g>
		<path class="st1" d="M946.74,3132.21c-15.53,349.58,0.24,667.02,278.16,715.29c16.6,1.08,32.74,1.26,48.21,0.44
			c114.53-5.77,196.45-64.6,238.57-187.92c24.59-71.83,25-149.58,5.71-223c-28.73-109.78-52.96-217.14-70.21-320.72l-297.94,9.42
			L946.74,3132.21z"/>
	</g>
	<g class="st7">
		<path class="st8" d="M1511.73,3660.02c-42.21,123.34-124.14,182.15-238.67,187.95c-15.4,0.8-31.51,0.6-48.11-0.5
			c-88.33-15.3-150.14-57.82-192.86-119.83c13.3,4,27.21,7.3,41.81,9.8c16.6,1.1,32.71,1.3,48.21,0.5
			c114.53-5.8,196.46-64.62,238.57-187.95c24.61-71.82,25.01-149.54,5.7-222.96c-6.84-26.18-13.44-52.2-19.74-78.06
			c-16.14-66.21,32.45-130.54,100.56-132.7l0,0c17.2,103.63,41.41,210.96,70.22,320.79
			C1536.64,3510.48,1536.24,3588.2,1511.73,3660.02z"/>
	</g>
	<g class="st2">
		<path class="st1" d="M1327.38,3840.57c-17.2,4-35.31,6.4-54.32,7.4c-15.4,0.8-31.51,0.6-48.11-0.5
			c-277.98-48.21-293.79-365.71-278.18-715.31l112.43-3.6C1043.9,3473.27,1059.5,3786.56,1327.38,3840.57z"/>
	</g>
	<g>
		<path class="st3" d="M1252.71,3890.83c-9.99,0-20.17-0.34-30.57-1.03c-1.49-0.1-2.98-0.28-4.45-0.53
			c-317.77-55.18-328.35-420.69-313.31-758.97c1.04-23.39,20.78-41.47,44.22-40.46c23.38,1.04,41.49,20.84,40.45,44.22
			c-17.08,384.4,17.33,630.93,240.94,671.3c125.21,7.7,201.98-42.96,241.59-159.01c21.05-61.65,22.71-130.34,4.82-198.64
			c-31.4-119.73-54.62-225.87-70.99-324.49c-3.83-23.09,11.78-44.92,34.86-48.75c23.13-3.84,44.92,11.79,48.75,34.87
			c15.94,96.03,38.63,199.69,69.37,316.88c22.13,84.46,19.85,170.05-6.59,247.51C1503.15,3816.26,1400.08,3890.83,1252.71,3890.83z"
			/>
	</g>
	<g>
		<path class="st3" d="M1377.52,3597.58c7.63,23.03,15.2,46.54,18.76,71.4c3.87,24.73,5.44,50.52,2.05,76.95
			c-3.37,26.32-11.97,53.37-27.87,77.77c-7.6,12.4-17.86,23.42-29.07,33.64c-11.66,9.82-24.94,18.25-39.82,24.56l-1.22,0.52
			c-18.98,8.05-40.89-0.81-48.94-19.79c-8.05-18.98,0.81-40.89,19.79-48.94c2.27-0.96,4.77-1.71,7.09-2.2
			c7.51-1.54,15.26-4.34,22.82-8.37c7.22-4.53,14.77-9.51,20.96-16.44c12.97-13.21,23.19-30.9,29.66-50.85
			c6.54-19.97,9.51-41.96,10.2-64.39c1.05-22.53-1.83-45.46-4.92-68.49l-0.08-0.61c-0.78-5.81,3.3-11.15,9.1-11.92
			C1371.17,3589.72,1375.94,3592.83,1377.52,3597.58z"/>
	</g>
	<g>
		<path class="st3" d="M1170.16,3658.57c3.14,21.14,6.5,42.15,13.11,61.58c6.24,19.41,14.49,37.83,25.97,51.94
			c11.25,14.39,25.28,23.73,40.58,28.92c15.26,5.43,32.73,6.13,51.21,4.96c20.56-1.3,38.28,14.3,39.58,34.86
			c1.3,20.56-14.3,38.28-34.86,39.58c-2.52,0.16-4.99,0.07-7.39-0.26l-0.6-0.09c-24.82-3.51-51.36-9.95-75.05-24.49
			c-23.71-14.1-42.93-35.46-54.08-58.49c-11.64-23-16.51-46.9-19.08-69.95c-2.85-23.16-1.81-45.84-0.58-68.14
			c0.32-5.86,5.33-10.34,11.18-10.02c5.12,0.28,9.2,4.15,9.92,9.04L1170.16,3658.57z"/>
	</g>
</g>
<g>
	<g>
		<path class="st1" d="M2986.28,3121.2c15.53,349.58-0.24,667.02-278.16,715.29c-16.6,1.08-32.74,1.26-48.21,0.44
			c-114.53-5.77-196.45-64.6-238.57-187.92c-24.59-71.83-25-149.58-5.71-223c28.73-109.78,52.96-217.14,70.21-320.72l297.94,9.42
			L2986.28,3121.2z"/>
	</g>
	<g class="st2">
		<path class="st1" d="M2770.89,3827.27c-12.6,3.7-25.81,6.8-39.61,9.2c-16.6,1.1-32.71,1.3-48.21,0.4
			c-114.53-5.7-196.46-64.52-238.57-187.85c-24.51-71.82-25.01-149.54-5.7-222.96c28.71-109.83,53.02-217.16,70.22-320.79l0,0
			c39.71,1.27,69.12,37.76,61.42,76.74c-15.09,76.4-33.51,154.6-54.32,234.05c-19.31,73.42-18.91,151.14,5.7,222.96
			c42.11,123.34,124.04,182.15,238.57,187.85C2763.89,3827.07,2767.39,3827.27,2770.89,3827.27z"/>
	</g>
	<g class="st7">
		<path class="st8" d="M2708.09,3836.47c-16.61,1.1-32.71,1.3-48.21,0.4c-50.51-2.5-94.63-15.3-131.74-39.41
			c215.26-81.22,166.32-370.1,153.02-685.99l102.66,3.29l202.46,6.4C3001.77,3470.77,2986.07,3788.26,2708.09,3836.47z"/>
	</g>
	<g>
		<path class="st3" d="M2680.31,3879.82c-147.38,0-250.43-74.57-299.09-217.09c-26.44-77.47-28.72-163.05-6.58-247.5
			c30.76-117.33,53.44-220.99,69.36-316.88c3.83-23.09,25.77-38.69,48.74-34.87c23.09,3.83,38.7,25.66,34.87,48.74
			c-16.34,98.49-39.56,204.63-70.98,324.5c-17.91,68.29-16.24,136.97,4.81,198.63c39.62,116.05,116.5,166.71,241.59,159.01
			c223.61-40.38,258.01-286.9,240.95-671.3c-1.04-23.38,17.08-43.18,40.46-44.22c23.24-1,43.18,17.07,44.21,40.46
			c15.02,338.27,4.43,703.79-313.32,758.97c-1.48,0.25-2.96,0.43-4.45,0.53C2700.49,3879.48,2690.29,3879.82,2680.31,3879.82z
			 M2708.08,3836.5h0.1H2708.08z"/>
	</g>
	<g>
		<path class="st3" d="M2576.01,3591.93c-3.09,23.03-5.97,45.96-4.92,68.49c0.68,22.44,3.65,44.43,10.2,64.39
			c6.48,19.95,16.69,37.63,29.66,50.85c6.2,6.93,13.74,11.92,20.96,16.44c7.56,4.03,15.32,6.83,22.82,8.37
			c20.2,4.13,33.22,23.86,29.08,44.05c-4.13,20.2-23.86,33.22-44.06,29.08c-2.41-0.49-4.71-1.21-6.9-2.12l-1.4-0.6
			c-14.88-6.31-28.15-14.74-39.82-24.56c-11.21-10.23-21.47-21.24-29.07-33.64c-15.91-24.39-24.51-51.45-27.87-77.77
			c-3.39-26.42-1.83-52.21,2.05-76.95c3.56-24.87,11.13-48.37,18.77-71.4c1.84-5.56,7.84-8.57,13.41-6.73
			c4.92,1.63,7.84,6.52,7.18,11.48L2576.01,3591.93z"/>
	</g>
	<g>
		<path class="st3" d="M2784.05,3647.98c1.23,22.31,2.27,44.99-0.58,68.14c-2.57,23.05-7.43,46.95-19.08,69.95
			c-11.15,23.03-30.37,44.39-54.08,58.49c-23.68,14.54-50.22,20.98-75.05,24.49l-0.4,0.06c-20.39,2.89-39.27-11.3-42.16-31.7
			c-2.89-20.39,11.31-39.27,31.7-42.16c2.5-0.35,5.17-0.43,7.59-0.29c18.47,1.17,35.95,0.47,51.21-4.96
			c15.31-5.19,29.33-14.53,40.58-28.92c11.48-14.11,19.73-32.53,25.97-51.95c6.61-19.42,9.97-40.43,13.11-61.58l0.08-0.56
			c0.86-5.8,6.26-9.8,12.06-8.94C2780.09,3638.81,2783.78,3643.04,2784.05,3647.98z"/>
	</g>
</g>
<g>
	<defs>
		<rect id="SVGID_3_" x="-3510.7" y="2785.13" width="2303.99" height="341.38"/>
	</defs>
	<clipPath id="SVGID_4_">
		<use xlink:href="#SVGID_3_"  style="overflow:visible;"/>
	</clipPath>
	<g class="st12">
		<g>
			<g>
				<path class="st1" d="M-1388.98,4297.46v0.11l-55.84,531.76c-6.25,60.5-26.59,119.09-62.08,168.35
					c-93.45,129.68-252.05,158.82-396.99,77.77c-127.03-70.99-202.89-207.55-204.59-353.02c-0.53-44.6,0.21-88.15,1.59-128.3
					c0.95-0.11,2.01-0.32,2.97-0.53h-2.97v0.53c-146.42,27.65-292.84,31.26-439.26,10.91c-21.51-2.97-42.91-6.46-64.31-10.49v-0.95
					h-5.62c1.91,0.32,3.71,0.74,5.62,0.95c1.38,40.05,2.12,83.38,1.59,127.88c-1.8,145.47-77.55,282.04-204.59,353.02
					c-51.07,28.5-103.83,43.44-154.79,45.03c-93.76,3.07-181.6-38.78-242.2-122.79c-35.6-49.27-55.83-107.86-62.19-168.35
					l-55.73-531.76v-0.11c-244.11-406.63-131.48-1052.81,61.24-1469.93h1816.92C-1257.5,3244.64-1144.98,3890.93-1388.98,4297.46z"
					/>
			</g>
			<g>
				<path class="st1" d="M-2610.47,4593.58v0.95c-1.91-0.21-3.71-0.64-5.62-0.95H-2610.47z"/>
			</g>
			<g>
				<path class="st1" d="M-2103.92,4593.58c-0.95,0.21-2.01,0.42-2.97,0.53v-0.53H-2103.92z"/>
			</g>
			<g>
				<path class="st1" d="M-2616.08,4593.58h5.62v0.95C-2612.37,4594.32-2614.17,4593.9-2616.08,4593.58z"/>
			</g>
			<g>
				<path class="st1" d="M-2103.92,4593.58c-0.95,0.21-2.01,0.42-2.97,0.53v-0.53H-2103.92z"/>
			</g>
		</g>
		<g class="st2">
			<g>
				<path class="st1" d="M-2919.73,5114.96c-111.46,21.61-219.84-18.86-290.72-117.29c-35.6-49.27-55.83-107.86-62.19-168.35
					l-55.73-531.76v-0.11c-244.11-406.63-131.48-1052.81,61.24-1469.93h114.74c-192.72,417.12-305.35,1063.3-61.24,1469.93v0.11
					l55.73,531.76c6.36,60.5,26.59,119.09,62.19,168.35C-3049.73,5061.45-2987.96,5100.97-2919.73,5114.96z"/>
			</g>
			<g>
				<path class="st1" d="M-1682.88,5114.96c-70.25,14.41-147.37,1.59-221.01-39.52c-127.03-70.99-202.89-207.55-204.59-353.02
					c-0.42-38.46,0-76.18,1.06-111.56c7.73-0.74,15.36-1.59,23.1-2.65l-10.49-202.15l0,0c58.07,0,104.88,47.56,103.97,105.62
					l-1.3,82.44c-1.39,40.61-2.14,84.69-1.57,129.82c1.81,144.88,77.91,280.61,204.35,351.38
					C-1754.23,5094.98-1718.45,5108.16-1682.88,5114.96z"/>
			</g>
		</g>
		<g>
			<ellipse class="st1" cx="-2360.01" cy="3749.65" rx="454.24" ry="517.75"/>
		</g>
		<g>
			<path class="st4" d="M-3189.02,4509.31c-10.03,0-20.09-3.54-28.17-10.74c-451.51-402.32-300.24-1230.4-88.41-1688.83
				c9.81-21.25,34.98-30.49,56.25-20.69c21.25,9.82,30.51,35,20.69,56.25c-120.67,261.15-192.31,568.79-196.57,844.04
				c-3.56,229.64,39.45,545.46,264.43,745.95c17.48,15.57,19.02,42.36,3.45,59.83C-3165.73,4504.52-3177.35,4509.31-3189.02,4509.31
				z"/>
		</g>
		<g>
			<path class="st4" d="M-2977.68,5163.03c-103.9,0-200.72-48.39-267.17-140.54c-38.39-53.23-62.58-118.49-69.94-188.71
				l-55.77-531.91c-2.44-23.28,14.46-44.13,37.74-46.57c23.19-2.42,44.12,14.46,46.57,37.73l55.77,531.91
				c5.82,55.54,24.64,106.71,54.39,147.97c80.12,111.12,214.33,136.85,341.93,65.53c111.2-62.15,181.29-183.46,182.91-316.59
				c2.11-172.51-15.43-330.56-15.61-332.14c-2.62-23.25,14.12-44.23,37.36-46.85c23.21-2.6,44.23,14.11,46.86,37.36
				c0.75,6.64,18.32,164.66,16.14,342.66c-1.98,163.38-88.71,312.64-226.33,389.55
				C-2853.74,5146.47-2916.92,5163.03-2977.68,5163.03z"/>
		</g>
		<g>
			<path class="st4" d="M-3107.15,4903.92c2.92,41.47,18.42,81.31,39.78,115.44c10.76,16.98,23.38,32.67,37.21,44.8
				c6.96,5.83,14.04,11.22,20.88,14.45l4.99,2.42c1.6,0.54,3.11,0.79,4.58,1.27c3.12,1.39,5.22,0.38,7.42,1.02l8.83,2.59
				c19.56,5.73,30.77,26.23,25.04,45.79c-5.73,19.56-26.23,30.77-45.79,25.03c-0.45-0.13-1.04-0.32-1.48-0.47
				c-8.15-2.76-17.09-5.34-23.49-9.53c-3.41-1.96-6.93-3.9-10.09-6l-8.62-6.71c-11.24-9.06-19.79-19.13-27.69-29.27
				c-15.28-20.49-26.1-42.18-34.57-64.36c-8.39-22.2-14.24-44.98-17.5-68.05c-3.21-23.04-3.86-46.46-0.66-69.43
				c0.81-5.82,6.18-9.88,12-9.07c5.07,0.7,8.81,4.87,9.15,9.79L-3107.15,4903.92z"/>
		</g>
		<g>
			<path class="st4" d="M-2824.55,4902.93c3.19,22.97,2.54,46.38-0.67,69.43c-3.26,23.07-9.11,45.85-17.5,68.05
				c-8.48,22.18-19.29,43.87-34.57,64.36c-7.9,10.14-16.45,20.21-27.69,29.27l-8.62,6.71c-3.17,2.1-6.68,4.03-10.09,6
				c-6.4,4.19-15.34,6.77-23.49,9.53c-19.3,6.55-40.25-3.79-46.8-23.09c-6.55-19.3,3.79-40.25,23.09-46.8
				c0.45-0.15,0.89-0.29,1.34-0.43l8.97-2.63c2.2-0.64,4.31,0.37,7.42-1.02c1.48-0.47,2.98-0.73,4.58-1.27l4.99-2.42
				c6.84-3.23,13.92-8.62,20.88-14.45c13.83-12.13,26.44-27.82,37.21-44.8c21.36-34.13,36.87-73.96,39.78-115.44l0.02-0.27
				c0.41-5.86,5.49-10.28,11.36-9.87C-2829.23,4894.14-2825.22,4898.05-2824.55,4902.93z"/>
		</g>
		<g>
			<path class="st4" d="M-1528.38,4509.31c-11.67,0-23.29-4.79-31.66-14.18c-15.57-17.48-14.03-44.27,3.45-59.84
				c224.99-200.49,267.98-516.31,264.42-745.95c-4.26-275.25-75.9-582.89-196.56-844.05c-9.82-21.25-0.56-46.43,20.69-56.25
				c21.23-9.81,46.44-0.55,56.25,20.7c211.82,458.43,363.07,1286.5-88.41,1688.82C-1508.29,4505.77-1518.36,4509.31-1528.38,4509.31
				z"/>
		</g>
		<g>
			<path class="st4" d="M-1739.73,5163.03c-60.77,0-123.93-16.55-184.85-50.6c-137.61-76.9-224.33-226.17-226.33-389.55
				c-2.17-178,15.39-336.02,16.14-342.66c2.63-23.26,23.52-39.97,46.85-37.36c23.26,2.62,39.99,23.6,37.37,46.85
				c-0.18,1.58-17.71,159.63-15.61,332.13c1.63,133.13,71.72,254.45,182.92,316.6c127.58,71.31,261.8,45.57,341.93-65.53
				c29.75-41.27,48.57-92.43,54.39-147.97l55.77-531.91c2.44-23.27,23.34-40.16,46.57-37.73c23.28,2.44,40.18,23.29,37.74,46.57
				l-55.77,531.91c-7.37,70.22-31.55,135.47-69.94,188.71C-1539,5114.63-1635.85,5163.02-1739.73,5163.03z"/>
		</g>
		<g>
			<path class="st4" d="M-1589.09,4902.93c3.19,22.97,2.54,46.38-0.67,69.43c-3.26,23.07-9.11,45.85-17.5,68.05
				c-8.47,22.18-19.29,43.87-34.57,64.36c-7.9,10.14-16.45,20.21-27.69,29.27l-8.62,6.71c-3.16,2.1-6.68,4.03-10.09,6
				c-6.4,4.19-15.34,6.77-23.49,9.53c-19.3,6.55-40.25-3.79-46.8-23.09c-6.55-19.3,3.79-40.25,23.09-46.8
				c0.44-0.15,0.89-0.29,1.34-0.43l8.97-2.63c2.2-0.64,4.3,0.37,7.42-1.02c1.48-0.47,2.98-0.73,4.58-1.27l4.99-2.42
				c6.83-3.23,13.92-8.62,20.88-14.45c13.83-12.13,26.44-27.82,37.21-44.8c21.36-34.13,36.87-73.96,39.78-115.44l0.02-0.27
				c0.41-5.86,5.49-10.28,11.36-9.87C-1593.77,4894.14-1589.77,4898.05-1589.09,4902.93z"/>
		</g>
		<g>
			<path class="st4" d="M-1871.69,4903.92c2.92,41.47,18.42,81.31,39.78,115.44c10.76,16.98,23.38,32.67,37.21,44.8
				c6.95,5.83,14.04,11.22,20.88,14.45l4.99,2.42c1.6,0.54,3.11,0.79,4.58,1.27c3.11,1.39,5.22,0.38,7.42,1.02l8.83,2.59
				c19.56,5.73,30.77,26.23,25.04,45.79c-5.73,19.56-26.23,30.77-45.79,25.03c-0.45-0.13-1.04-0.32-1.47-0.47
				c-8.15-2.76-17.09-5.34-23.49-9.53c-3.41-1.96-6.93-3.9-10.09-6l-8.62-6.71c-11.24-9.06-19.79-19.13-27.69-29.27
				c-15.28-20.49-26.09-42.18-34.57-64.36c-8.39-22.2-14.23-44.98-17.5-68.05c-3.21-23.04-3.86-46.46-0.67-69.43
				c0.81-5.82,6.18-9.88,12-9.07c5.07,0.7,8.81,4.87,9.15,9.79L-1871.69,4903.92z"/>
		</g>
		<g>
			<path class="st4" d="M-2360.01,4654.96c-87.89,0-175.74-8.33-263.02-25c-20.11-3.84-33.31-23.26-29.47-43.38
				c3.85-20.12,23.3-33.29,43.38-29.47c165.27,31.56,332.9,31.56,498.21,0c20.11-3.82,39.53,9.35,43.38,29.47
				c3.84,20.11-9.36,39.54-29.47,43.38C-2184.25,4646.62-2272.14,4654.96-2360.01,4654.96z"/>
		</g>
		<g class="st5">
			<path class="st6" d="M-2610.47,4594.54c1.38,40.05,2.12,83.38,1.59,127.88c-1.8,145.47-77.55,282.04-204.59,353.02
				c-51.07,28.5-103.83,43.44-154.79,45.03c186.23-95.3,177.7-498.88,163.39-683.37c-3.42-44.15,38.96-77.74,81.25-64.6
				c73.62,22.89,107.53,33.55,107.53,33.55l35.65,193.76C-2601.94,4596.85-2589.06,4598.56-2610.47,4594.54z"/>
		</g>
		<g class="st5">
			<path class="st6" d="M-2616.08,4406.05c0,0,306.02,47.57,487.9,0v199.71l-452.24-5.94L-2616.08,4406.05z"/>
		</g>
		<g class="st5">
			<path class="st6" d="M-1410.68,2919.44c4.53-2.18,6.99-3.43,7.06-3.46c-14.88-37.96-30.43-74.7-46.6-109.71h-1798.1
				l-69.65,120.38c0.02,0.06,0.03,0.09,0.05,0.15c673.95,277.66,1272.7,193.72,1614.29,98.43c42.63-11.89,87,12.37,100.34,54.57
				c125.15,395.95,163.12,886.38-35.73,1217.66v0.11l-55.83,531.76c-6.25,60.5-26.59,119.09-62.09,168.35
				c-30.94,42.91-68.97,74.8-111.24,95.35c134.66,58.06,275.47,23.73,361.29-95.35c35.49-49.26,55.83-107.86,62.08-168.35
				l55.84-531.76v-0.11C-1162.24,3919.69-1243.42,3335-1410.68,2919.44z"/>
		</g>
	</g>
</g>
<g>
	<g>
		<path class="st1" d="M-841.32,1951.1c0,155.53-34.75,294.54-98.21,416.59c-45.77,88.04-106.48,167.19-179.9,237.32
			c-25.32,24.26-52.23,47.47-80.52,69.5c0,0,0,0.11-0.11,0.11c-282.88,221.01-708.16,334.37-1183.66,334.37
			c-61.66,0-122.58-1.91-182.34-5.72h-0.11c-401.02-25.53-754.99-136.36-1001.22-328.65c-0.11,0-0.11-0.11-0.11-0.11
			c-24.26-18.96-47.57-38.67-69.71-59.33c-181.81-168.56-288.82-390.74-288.82-664.09c0-99.06,13.56-196.64,39.41-291.15
			c10.06-37.19,22.14-73.85,35.92-109.97l-2.33,1.8c34.54-300.79,71.62-593.42,133.92-870.37c29.24-130.21,64.2-256.93,107.01-379.3
			c54.67-156.06,242.41-217.83,377.81-123.22c194.31,135.83,382.37,327.17,490.44,486.73c108.17-21.83,220.9-33.48,337.13-33.48
			c64.63,0,128.3,3.6,191.03,10.49c66.64,7.42,132.22,18.54,196.22,33.16l-12.82-10.17c108.07-159.56,296.13-350.9,490.44-486.73
			c135.4-94.61,323.14-32.84,377.81,123.22c104.15,297.5,161.25,620.33,205.43,957.04c12.19,93.55,23.42,188.27,34.43,283.84
			C-870.56,1673.19-841.32,1810.71-841.32,1951.1z"/>
	</g>
	<g>
		<path class="st13" d="M-3319.14,1172.79c0,275.04-202.36,497.96-452.08,497.96c-32.31,0-63.78-3.71-94.19-10.81
			c10.06-37.19,22.14-73.85,35.92-109.97l-2.33,1.8c34.54-300.79,71.62-593.42,133.92-870.37
			C-3483.05,719.97-3319.14,925.3-3319.14,1172.79z"/>
	</g>
	<g>
		<path class="st13" d="M-830.72,1951.1c0,155.53-34.75,294.54-98.21,416.59c-119.09,60.5-249.72,93.87-386.82,93.87
			c-557.61,0-1009.59-552.63-1009.59-1234.3c0-211.47,43.55-410.66,120.25-584.63c66.64,7.42,132.22,18.54,196.22,33.16
			l-12.82-10.17c108.07-159.56,296.13-350.9,490.44-486.73c135.4-94.61,323.14-32.84,377.81,123.22
			c104.15,297.5,161.25,620.33,205.43,957.04c12.19,93.55,23.42,188.27,34.43,283.84C-859.96,1673.19-830.72,1810.71-830.72,1951.1z
			"/>
	</g>
	<g class="st5">
		<path class="st6" d="M-935.93,1908.72c0,155.53-34.75,294.54-98.21,416.59c-45.77,88.04-106.48,167.19-179.9,237.33
			c-25.32,24.26-52.23,47.46-80.52,69.5c0,0,0,0.11-0.11,0.11c-282.88,221.01-708.16,334.37-1183.66,334.37
			c-61.66,0-122.58-1.91-182.34-5.72h-0.11c-224.61-14.3-434.39-55.31-618.85-122.58c-102.67-45.56-195.79-100.23-277.16-163.69
			c-0.11,0-0.11-0.11-0.11-0.11c-24.26-18.96-47.57-38.67-69.71-59.33c-17.48-16.21-34.33-32.95-50.43-50.22
			c230.44,129.68,523.28,205.86,846.74,226.41h0.11c59.75,3.81,120.67,5.72,182.34,5.72c475.5,0,900.78-113.37,1183.66-334.37
			c0.11,0,0.11-0.11,0.11-0.11c28.29-22.04,55.2-45.24,80.52-69.5c73.42-70.14,134.13-149.28,179.9-237.32
			c63.46-122.05,98.21-261.06,98.21-416.59c0-140.38-29.24-277.9-82.85-408.12c-11.02-95.57-22.25-190.28-34.43-283.84
			c-41.96-319.86-95.57-627.11-190.18-912.11c20.66-1.91,41.43-1.27,61.66,1.91c41.11,28.82,84.11,60.22,103.79,111.95
			c104.78,275.33,162.42,632.73,206.6,969.43c12.18,93.55,24.3,186.96,35.32,282.53C-951.93,1631.16-935.93,1768.33-935.93,1908.72z
			"/>
	</g>
	<g class="st2">
		<path class="st1" d="M-3223.68,178.89c16.53,11.55,32.95,23.52,49.37,35.81c-130.85-62.83-292.42,0.95-342.43,143.88
			c-133.92,382.79-190.18,807.54-240.93,1249.67l2.33-1.8c-48.95,128.09-75.33,263.18-75.33,401.12
			c0,273.35,107.01,495.52,288.82,664.09c22.14,20.66,45.45,40.37,69.71,59.33c0,0,0,0.11,0.11,0.11
			c9.85,7.73,19.92,15.36,30.2,22.78c-40.47-24.69-78.93-51.07-114.96-79.25c-0.11,0-0.11-0.11-0.11-0.11
			c-24.26-18.96-47.57-38.67-69.71-59.33c-181.81-168.56-288.82-390.74-288.82-664.09c0-137.95,26.38-273.03,75.33-401.12l-2.33,1.8
			c50.75-442.13,107.01-866.87,240.93-1249.67C-3546.83,146.04-3359.09,84.28-3223.68,178.89z"/>
	</g>
	<g class="st2">
		<path class="st1" d="M-1211.29,208.87c-74.27-30.09-162.31-24.47-235.21,26.49c-172.05,120.27-339.21,284.06-450.26,430.78
			c-25.34,33.48-67.36,49.33-108.78,42.4c-0.23-0.04-0.46-0.08-0.69-0.11h-0.11c-6.36-11.76-13.35-24.37-20.13-36.55
			c5.83,1.27,11.76,2.54,17.59,3.92l-12.82-10.17c108.07-159.56,296.13-350.9,490.44-486.73
			C-1427.53,106.42-1293.08,125.7-1211.29,208.87z"/>
	</g>
	<g>
		<path class="st14" d="M-3131.4,800.91c-65.26-119.51-149.71-232.77-210.52-308.31c-32.31-40.26-96.84-25.53-108.6,24.79
			c-29.67,126.82-71.41,340.84-77.45,563.12v0.11"/>
	</g>
	<g class="st2">
		<path class="st1" d="M-3074.92,863.48l-279.11,186.47c-49.2,32.87-110.55,41.91-167.14,24.63h0l389.77-273.66
			c-65.26-119.51-149.71-232.77-210.52-308.31c-0.21-0.32-0.42-0.53-0.74-0.74c23.52-28.5,70.14-31.57,96.1,0.74
			c50.43,62.64,130.35,167.55,193.38,269.7C-3032.09,796.48-3041.52,841.16-3074.92,863.48z"/>
	</g>
	<g class="st5">
		<path class="st15" d="M-3318.4,522.16c-2.12,4.24-3.81,8.79-4.98,13.77c-24.58,105.21-57.53,270.59-71.52,450.81l-133.07,93.87
			v-0.11c6.04-222.28,47.78-436.3,77.45-563.12c11.76-50.33,76.28-65.05,108.6-24.79C-3334.4,501.93-3326.56,511.78-3318.4,522.16z"
			/>
	</g>
	<g>
		<path class="st14" d="M-1226.96,1080.62v-0.11c-6.04-222.28-47.78-436.3-77.45-563.12c-11.76-50.33-76.28-65.05-108.6-24.79
			c-60.81,75.54-145.26,188.8-210.52,308.31"/>
	</g>
	<g class="st2">
		<path class="st1" d="M-1226.96,1093.93L-1226.96,1093.93l-0.86-40.01c-8.48-212.64-48.1-414.79-76.6-536.53
			c-2.12-9.32-6.15-17.38-11.34-24.16c32.1-9.64,69.71,8.05,78.4,45.35c26.59,113.69,62.9,297.46,74.48,494.43
			C-1160.77,1068.88-1191.28,1098.07-1226.96,1093.93z"/>
	</g>
	<g class="st5">
		<path class="st15" d="M-1293.19,567.09c-3.71,2.86-7.21,6.36-10.38,10.28c-59.86,74.38-142.71,185.41-207.45,302.91l-112.52-79.36
			c65.27-119.51,149.71-232.77,210.52-308.31c32.31-40.26,96.84-25.53,108.6,24.79C-1300.82,532.76-1297.11,549.29-1293.19,567.09z"
			/>
	</g>
	<g>
		<g>
			<path class="st4" d="M-2058.09,2109.76c1.34,34.62-5.57,72.33-28.59,105.06c-11.53,16.1-27.2,30.17-45.43,40
				c-18.23,9.88-38.7,15.2-59,16.74c-40.92,3.16-80.65-9.3-114.13-30.31c-16.79-10.61-31.95-23.79-45.18-38.81
				c-3.17-3.88-6.32-7.79-9.37-11.77l-4.3-6.19l-2.14-3.11c-0.68-1.01-1.73-2.53-1.13-1.53c2.11,3.16,6.15,5.09,8.98,4.96
				c2.83,0.11,6.87-1.77,9-4.92c0.61-1-0.45,0.52-1.14,1.53l-2.15,3.1l-4.33,6.17c-3.07,3.96-6.23,7.86-9.45,11.7
				c-13.31,14.95-28.51,28.08-45.37,38.57c-33.57,20.86-73.37,33.05-114.24,29.73c-20.28-1.66-40.72-7.04-58.89-17.02
				c-18.17-9.91-33.77-24.05-45.21-40.2c-22.88-32.82-29.6-70.55-28.14-105.16c0.25-5.92,5.26-10.51,11.18-10.26
				c4.63,0.2,8.45,3.3,9.77,7.49l0.1,0.33c9.62,30.63,22.72,59.11,43.03,77.23c19.77,18.4,44.44,26.32,70.04,24.92
				c25.56-1.03,51.43-11.24,72.99-26.53c10.76-7.75,20.67-16.66,28.93-26.83l5.98-7.75l6.56-9.59c11.5-16.89,32.1-26.93,51.51-26.65
				c19.41-0.22,39.97,9.95,51.39,26.89l6.52,9.62l5.96,7.76c8.21,10.2,18.06,19.19,28.8,26.95c21.47,15.41,47.3,25.68,72.83,26.87
				c25.58,1.51,50.27-6.27,70.12-24.56c20.42-17.99,33.66-46.41,43.46-76.98l0.1-0.31c1.81-5.64,7.85-8.75,13.49-6.94
				C-2061.12,2101.37-2058.26,2105.39-2058.09,2109.76z"/>
		</g>
		<g>
			<path class="st4" d="M-2526.07,2240.22c0,44.61,13.14,80.31,34.33,107.12c63.57,80.84,199.29,80.84,262.86,0
				c21.19-26.81,34.33-62.51,34.33-107.12c-64.31-12.93-120.68-36.55-165.81-75.12
				C-2407.09,2207.06-2460.38,2236.09-2526.07,2240.22z"/>
		</g>
		<g>
			<path class="st16" d="M-2491.75,2347.33c63.57,80.84,199.29,80.84,262.86,0C-2292.35,2266.28-2428.28,2266.28-2491.75,2347.33z"
				/>
		</g>
		<g>
			<path class="st4" d="M-2360.36,2445.01c-52.59,0-101.87-18.26-138.75-51.43c-29.24-26.29-64.08-74.23-64.08-153.34h74.16
				c0,90.22,64.63,130.6,128.67,130.6s128.67-40.38,128.67-130.6h74.16C-2157.53,2374.68-2259.57,2445.01-2360.36,2445.01z"/>
		</g>
		<g>
			<ellipse class="st4" cx="-1739.83" cy="1800.1" rx="226.12" ry="306.97"/>
		</g>
		<g>
			<ellipse class="st1" cx="-1692.21" cy="1748.22" rx="68.68" ry="81.89"/>
		</g>
		<g>
			<ellipse class="st4" cx="-2997.79" cy="1800.1" rx="226.12" ry="306.97"/>
		</g>
		<g>
			<path class="st14" d="M-2229.25,2063.69c-0.1,42.59-58.89,76.98-131.3,76.8c-72.41-0.18-131.03-34.85-130.92-77.44
				c0.1-42.59,58.81-46.13,131.22-45.95C-2287.84,2017.27-2229.15,2021.09-2229.25,2063.69z"/>
		</g>
		<g>
			<ellipse class="st1" cx="-3045.42" cy="1748.22" rx="68.68" ry="81.89"/>
		</g>
	</g>
	<g>
		<path class="st4" d="M-3527.98,1117.7c-5.12,0-10.27-1.06-15.12-3.23c-13.35-5.97-21.95-19.23-21.95-33.85
			c0-0.34,0-0.78,0.01-1.11c5.98-220.11,45.94-431.76,78.41-570.56c8.69-37.23,37.27-65.63,74.55-74.1
			c37.16-8.44,75.18,4.78,99.07,34.54c60.7,75.41,147.16,191.09,214.15,313.75c4.75,8.7,5.82,18.95,2.96,28.45
			c-2.85,9.5-9.4,17.46-18.16,22.1c-133.73,70.78-264.68,163.16-389.2,274.57C-3510.18,1114.46-3519.02,1117.7-3527.98,1117.7z
			 M-3389.81,506.53c-2.41,0-4.45,0.33-5.84,0.64c-4.57,1.04-15.55,4.94-18.76,18.66c-27.46,117.35-60.39,287.9-72.48,470.46
			c98.56-81.67,200.66-152.05,304.71-210c-61.33-105.75-135.2-204.08-188.62-270.44C-3376.91,508.26-3384.33,506.53-3389.81,506.53z
			"/>
	</g>
	<g>
		<path class="st4" d="M-2373.12,3051.38c-445.51,0-830.49-95.2-1113.35-275.31c-308.35-196.34-471.33-481.61-471.33-824.97
			c0-136.2,24.62-271.86,73.2-403.38c0.02-0.26,0.05-0.52,0.08-0.78c50.79-442.48,107.59-871.72,243.03-1258.83
			c30.63-87.48,98.65-153.9,186.61-182.27c87.24-28.14,180.36-14.17,255.48,38.31c180.87,126.44,368.46,310.3,485.23,474.62
			c218.86-40.45,448.65-38.39,669.17,6.03c116.43-165.84,306.4-352.66,489.48-480.65c75.12-52.48,168.22-66.45,255.49-38.31
			c87.96,28.37,155.97,94.8,186.61,182.26c133.96,382.92,190.99,807.01,241.37,1244.39c55.56,136.96,83.72,277.76,83.72,418.6
			c0,343.36-163,628.63-471.38,824.98C-1542.6,2956.18-1927.6,3051.38-2373.12,3051.38z M-3799.18,1546.66
			c0.96,6.86,0.25,14.03-2.35,20.89c-47.46,125.08-71.51,254.12-71.51,383.55c0,312.93,149.42,573.48,432.1,753.48
			c265.38,168.98,644.61,262.04,1067.83,262.04c423.23,0,802.47-93.06,1067.88-262.04c282.71-180,432.15-440.55,432.15-753.48
			c0-124.72-24.05-249.64-71.51-371.66c-5.36-6.22-8.99-14.06-9.99-22.84c-0.25-2.16-0.5-4.29-0.74-6.46
			c-0.26-1.52-0.44-3.06-0.53-4.61c-49.9-433.61-106.12-853.76-237.56-1229.44c-21.78-62.2-70.13-109.44-132.63-129.59
			c-61.77-19.93-127.72-10.05-180.91,27.12c-177.89,124.35-362.19,306.11-472.83,465.84c-1.59,10.41-7.03,19.94-15.38,26.63
			c-10,8.02-23.12,11.11-35.65,8.32c-228.13-50.41-467.85-52.88-694.03-7.26c-16.68,3.4-33.89-3.62-43.47-17.77
			c-109.78-162.08-298.04-348.82-479.63-475.76c-53.17-37.16-119.12-47.04-180.91-27.12c-62.49,20.16-110.83,67.4-132.62,129.61
			C-3693.04,692.1-3749.24,1112.65-3799.18,1546.66z"/>
	</g>
	<g>
		<path class="st4" d="M-1226.95,1117.7c-8.23,0-16.41-2.74-23.13-8.09c-140.61-112.11-269.01-202.69-392.55-276.91
			c-17.05-10.24-22.98-32.1-13.45-49.56c66.96-122.62,153.43-238.32,214.18-313.79c23.85-29.71,61.81-42.95,99.04-34.5
			c37.29,8.47,65.86,36.87,74.56,74.1c29.81,127.53,76.23,549.72,78.2,567.63c1.62,14.89-5.86,29.29-18.98,36.52
			C-1214.67,1116.19-1220.82,1117.7-1226.95,1117.7z M-1573.66,787.88c95.89,59.28,194.76,128.17,299.85,208.95
			c-15.56-133.76-45.95-382.27-66.7-470.99c-3.21-13.73-14.19-17.63-18.77-18.67c-4.55-1.02-16.07-2.25-24.82,8.64
			C-1437.82,582.57-1512.18,681.56-1573.66,787.88z"/>
	</g>
	<g class="st11">
		<path class="st1" d="M-2526.13,787.46c-188.42,30.04-340.98,86.23-449.83,174.32c-38.59,31.23-23.4,93.64,25.06,104.4
			c217.81,48.35,386.11-3.67,487.17-191.97C-2440.5,830.93-2477.63,779.72-2526.13,787.46z"/>
	</g>
	<g class="st11">
		<path class="st1" d="M-3213.4,1265.36c-35.22-26.52-34.2-87.32,2.3-135.78c36.49-48.47,94.63-66.25,129.86-39.73
			c35.22,26.52,12.43,70.93-24.06,119.39C-3141.8,1257.71-3178.17,1291.88-3213.4,1265.36z"/>
	</g>
	<g>
		<g>
			<path class="st4" d="M-1108.79,2182.58c42.6-8.18,84.45-10.07,126.08-10.06c41.59,0.26,82.9,3,123.94,7.85
				c41.05,4.84,81.84,11.89,122.33,21.41c40.47,9.75,80.7,21.44,120.18,39.49c-42.61,8.26-84.47,10.17-126.09,10.14
				c-41.59-0.27-82.9-3-123.93-7.94c-41.04-4.93-81.83-11.97-122.32-21.49C-1029.07,2212.21-1069.31,2200.54-1108.79,2182.58z"/>
		</g>
		<g>
			<path class="st4" d="M-1127.63,2374.09c43.05,5.36,83.44,16.47,123.03,29.32c39.48,13.08,77.93,28.42,115.47,45.7
				c37.55,17.27,74.18,36.56,109.76,58.1c35.48,21.76,70.15,45.29,102.13,74.63c-43.08-5.28-83.48-16.38-123.06-29.24
				c-39.48-13.08-77.93-28.42-115.44-45.78c-37.52-17.35-74.14-36.63-109.72-58.18
				C-1060.93,2426.87-1095.61,2403.36-1127.63,2374.09z"/>
		</g>
		<g>
			<path class="st4" d="M-3647.67,2176.39c-39.57,17.77-79.86,29.24-120.37,38.82c-40.54,9.32-81.36,16.17-122.42,20.9
				c-41.06,4.74-82.38,7.27-123.97,7.33c-41.62-0.17-83.47-2.29-126.04-10.76c39.56-17.85,79.85-29.35,120.36-38.9
				c40.54-9.32,81.36-16.17,122.43-20.81c41.07-4.66,82.38-7.19,123.98-7.25C-3732.06,2165.9-3690.23,2168-3647.67,2176.39z"/>
		</g>
		<g>
			<path class="st4" d="M-3629.76,2367.99c-27.74,32.14-58.76,58.86-90.76,83.94c-32.14,24.86-65.57,47.59-100.09,68.5
				c-34.52,20.92-70.2,39.93-107.15,56.82c-37.08,16.68-75.17,31.69-116.57,41.23c27.7-32.21,58.7-58.95,90.72-84.01
				c32.14-24.86,65.57-47.59,100.14-68.43c34.57-20.84,70.24-39.86,107.2-56.74C-3709.2,2392.63-3671.12,2377.6-3629.76,2367.99z"/>
		</g>
	</g>
</g>
<g>
	<g>
		<path class="st1" d="M-3378.77,3132.21c-15.53,349.58,0.24,667.02,278.16,715.29c16.6,1.08,32.74,1.26,48.21,0.44
			c114.53-5.77,196.45-64.6,238.57-187.92c24.59-71.83,25-149.58,5.71-223c-28.73-109.78-52.96-217.14-70.21-320.72l-297.94,9.42
			L-3378.77,3132.21z"/>
	</g>
	<g class="st5">
		<path class="st6" d="M-2813.77,3660.02c-42.21,123.34-124.14,182.15-238.67,187.95c-15.4,0.8-31.51,0.6-48.11-0.5
			c-88.33-15.3-150.14-57.82-192.86-119.83c13.3,4,27.21,7.3,41.81,9.8c16.6,1.1,32.71,1.3,48.21,0.5
			c114.53-5.8,196.46-64.62,238.57-187.95c24.61-71.82,25.01-149.54,5.7-222.96c-6.84-26.18-13.44-52.2-19.74-78.06
			c-16.14-66.21,32.45-130.54,100.56-132.7l0,0c17.2,103.63,41.41,210.96,70.22,320.79
			C-2788.86,3510.48-2789.26,3588.2-2813.77,3660.02z"/>
	</g>
	<g class="st2">
		<path class="st1" d="M-2998.13,3840.57c-17.2,4-35.31,6.4-54.32,7.4c-15.4,0.8-31.51,0.6-48.11-0.5
			c-277.98-48.21-293.79-365.71-278.18-715.31l112.43-3.6C-3281.61,3473.27-3266,3786.56-2998.13,3840.57z"/>
	</g>
	<g>
		<path class="st4" d="M-3072.79,3890.83c-9.99,0-20.17-0.34-30.57-1.03c-1.49-0.1-2.98-0.28-4.45-0.53
			c-317.77-55.18-328.35-420.69-313.31-758.97c1.04-23.39,20.78-41.47,44.22-40.46c23.38,1.04,41.49,20.84,40.45,44.22
			c-17.08,384.4,17.33,630.93,240.94,671.3c125.21,7.7,201.98-42.96,241.59-159.01c21.05-61.65,22.71-130.34,4.82-198.64
			c-31.4-119.73-54.62-225.87-70.99-324.49c-3.83-23.09,11.78-44.92,34.86-48.75c23.13-3.84,44.92,11.79,48.75,34.87
			c15.94,96.03,38.63,199.69,69.37,316.88c22.13,84.46,19.85,170.05-6.59,247.51C-2822.35,3816.26-2925.43,3890.83-3072.79,3890.83z
			"/>
	</g>
	<g>
		<path class="st4" d="M-2947.99,3597.58c7.63,23.03,15.2,46.54,18.76,71.4c3.87,24.73,5.44,50.52,2.05,76.95
			c-3.37,26.32-11.97,53.37-27.87,77.77c-7.59,12.4-17.86,23.42-29.07,33.64c-11.66,9.82-24.94,18.25-39.82,24.56l-1.22,0.52
			c-18.98,8.05-40.89-0.81-48.94-19.79c-8.05-18.98,0.81-40.89,19.79-48.94c2.27-0.96,4.77-1.71,7.09-2.2
			c7.51-1.54,15.26-4.34,22.82-8.37c7.22-4.53,14.76-9.51,20.96-16.44c12.97-13.21,23.19-30.9,29.66-50.85
			c6.54-19.97,9.51-41.96,10.2-64.39c1.05-22.53-1.83-45.46-4.92-68.49l-0.08-0.61c-0.78-5.81,3.3-11.15,9.1-11.92
			C-2954.33,3589.72-2949.56,3592.83-2947.99,3597.58z"/>
	</g>
	<g>
		<path class="st4" d="M-3155.35,3658.57c3.14,21.14,6.5,42.15,13.11,61.58c6.24,19.41,14.49,37.83,25.97,51.94
			c11.25,14.39,25.28,23.73,40.58,28.92c15.26,5.43,32.73,6.13,51.21,4.96c20.56-1.3,38.28,14.3,39.58,34.86
			c1.3,20.56-14.3,38.28-34.86,39.58c-2.52,0.16-4.99,0.07-7.39-0.26l-0.6-0.09c-24.82-3.51-51.36-9.95-75.05-24.49
			c-23.71-14.1-42.93-35.46-54.08-58.49c-11.64-23-16.51-46.9-19.08-69.95c-2.85-23.16-1.81-45.84-0.58-68.14
			c0.32-5.86,5.33-10.34,11.18-10.02c5.12,0.28,9.2,4.15,9.92,9.04L-3155.35,3658.57z"/>
	</g>
</g>
<g>
	<g>
		<path class="st1" d="M-1339.22,3124.2c15.53,349.58-0.24,667.02-278.16,715.29c-16.6,1.08-32.74,1.26-48.21,0.44
			c-114.53-5.77-196.45-64.6-238.57-187.92c-24.59-71.83-25-149.58-5.71-223c28.73-109.78,52.96-217.14,70.21-320.72l297.94,9.42
			L-1339.22,3124.2z"/>
	</g>
	<g class="st2">
		<path class="st1" d="M-1554.61,3830.27c-12.6,3.7-25.81,6.8-39.61,9.2c-16.6,1.1-32.71,1.3-48.21,0.4
			c-114.53-5.7-196.46-64.52-238.57-187.85c-24.51-71.82-25.01-149.54-5.7-222.96c28.71-109.83,53.02-217.16,70.22-320.79l0,0
			c39.71,1.27,69.12,37.76,61.42,76.74c-15.09,76.4-33.51,154.6-54.32,234.05c-19.31,73.42-18.91,151.14,5.7,222.96
			c42.11,123.34,124.04,182.15,238.57,187.85C-1561.61,3830.07-1558.11,3830.27-1554.61,3830.27z"/>
	</g>
	<g class="st5">
		<path class="st6" d="M-1617.42,3839.47c-16.61,1.1-32.71,1.3-48.21,0.4c-50.51-2.5-94.63-15.3-131.74-39.41
			c215.26-81.22,223.91-368.01,210.6-683.9l45.07,1.2l202.46,6.4C-1323.73,3473.77-1339.44,3791.26-1617.42,3839.47z"/>
	</g>
	<g>
		<path class="st4" d="M-1645.2,3882.82c-147.38,0-250.43-74.57-299.09-217.09c-26.44-77.47-28.72-163.05-6.58-247.5
			c30.76-117.33,53.44-220.99,69.36-316.88c3.83-23.09,25.77-38.69,48.74-34.87c23.09,3.83,38.7,25.66,34.87,48.74
			c-16.34,98.49-39.56,204.63-70.98,324.5c-17.91,68.29-16.24,136.97,4.81,198.63c39.62,116.05,116.5,166.71,241.59,159.01
			c223.61-40.38,258.01-286.9,240.95-671.3c-1.04-23.38,17.08-43.18,40.46-44.22c23.24-1,43.18,17.07,44.21,40.46
			c15.02,338.27,4.43,703.79-313.32,758.97c-1.48,0.25-2.96,0.43-4.45,0.53C-1625.02,3882.48-1635.21,3882.82-1645.2,3882.82z
			 M-1617.43,3839.5h0.1H-1617.43z"/>
	</g>
	<g>
		<path class="st4" d="M-1749.5,3594.93c-3.09,23.03-5.97,45.96-4.92,68.49c0.68,22.44,3.65,44.43,10.2,64.39
			c6.48,19.95,16.69,37.63,29.66,50.85c6.2,6.93,13.74,11.92,20.96,16.44c7.56,4.03,15.32,6.83,22.82,8.37
			c20.2,4.13,33.22,23.86,29.08,44.05c-4.13,20.2-23.86,33.22-44.06,29.08c-2.41-0.49-4.71-1.21-6.9-2.12l-1.4-0.6
			c-14.88-6.31-28.15-14.74-39.82-24.56c-11.21-10.23-21.47-21.24-29.07-33.64c-15.91-24.39-24.51-51.45-27.87-77.77
			c-3.39-26.42-1.83-52.21,2.05-76.95c3.56-24.87,11.13-48.37,18.77-71.4c1.84-5.56,7.84-8.57,13.41-6.73
			c4.92,1.63,7.84,6.52,7.18,11.48L-1749.5,3594.93z"/>
	</g>
	<g>
		<path class="st4" d="M-1541.45,3650.98c1.23,22.31,2.27,44.99-0.58,68.14c-2.57,23.05-7.43,46.95-19.08,69.95
			c-11.15,23.03-30.37,44.39-54.08,58.49c-23.68,14.54-50.22,20.98-75.05,24.49l-0.4,0.06c-20.39,2.89-39.27-11.3-42.16-31.7
			c-2.89-20.39,11.31-39.27,31.7-42.16c2.5-0.35,5.17-0.43,7.59-0.29c18.47,1.17,35.95,0.47,51.21-4.96
			c15.31-5.19,29.33-14.53,40.58-28.92c11.48-14.11,19.73-32.53,25.97-51.95c6.61-19.42,9.97-40.43,13.11-61.58l0.08-0.56
			c0.86-5.8,6.26-9.8,12.06-8.94C-1545.42,3641.81-1541.72,3646.04-1541.45,3650.98z"/>
	</g>
</g>
<path class="st3" d="M5440.54,1155.92c-4.54-18.61-7.85-37.37-8.4-56.59c-0.31-10.88-1.92-21.55-0.47-32.67
	c1.97-15.17-0.03-15.91-14.53-11.58c-21.39,6.38-43.18,11.1-65.02,15.72c-45.22,9.57-90.93,11.55-136.92,9.71
	c-88.23-3.52-167.93-32.47-238.93-83.95c-73.77-53.48-127.92-124.08-170.16-204.24c-20.09-38.12-37.5-77.34-50.72-118.42
	c-8.29-25.76-12.16-50.83,5-74.78c18.08-25.25,36.56-35.28,68.62-30.98c29.84,4,50.49,22.24,59.2,51.51
	c19.74,66.39,51.33,126.34,95.35,179.8c33.36,40.5,72.61,73.77,119.86,96.98c35.79,17.58,73.7,27.52,113.44,32.13
	c47.34,5.49,93.46-0.56,139.53-10.16c6.24-1.3,9.05-1.8,6.2-10.11c-7.18-20.88-14.79-41.61-20.31-63.15
	c-11.23-43.81-14-88.15-13.31-133.04c0.9-59.44,17.43-114.92,40.51-169.12c10.86-25.51,24.58-49.41,39.33-76.62
	c-14.63,4.58-26.75,1.32-38.98,0.42c-51.1-3.75-96.15-22.75-136.27-54.33c-12.89-10.15-25.42-20.6-37.39-31.85
	c-7.45-7-18.42-7.7-27.72-11c-44.67-15.83-85.19-38.97-122.87-67.26c-22.36-16.78-43.67-34.95-62.68-55.51
	c-24.46-26.46-48.14-53.93-66.24-85.01c-22.06-37.88-11.52-92.19,34.48-117.48c40-21.99,82.17-37.94,127.34-45.51
	c9.84-1.65,15.85-4.93,18.85-16.94c14.74-59.07,40.09-113.07,79.85-160.05c14.33-16.93,29.34-32.97,45.52-48
	c3.51-3.26,3.97-6.01,2.54-10.68c-8.7-28.49-14.76-57.31-16.62-87.36c-1.36-21.96-2.79-43.2,4.4-64.38
	c9.49-27.91,39.33-54.35,71.99-53.49c42.35,1.12,83.75,7.34,124.47,19.07c60.01,17.28,113.47,46.26,160.28,87.57
	c8.29,7.31,19.33,6.12,29.09,8.49c56.69,13.76,106.57,39.43,146.65,82.44c20.2,21.68,35.47,46.68,47,73.96
	c1.9,4.49,3.73,9,6.48,15.64c5.16-15.24,10.14-28.2,13.93-41.49c10.07-35.37,20.44-70.63,31.81-105.61
	c22.79-70.11,99.57-68.97,136.97-37.88c19.8,16.46,33.14,37.26,43.58,60.23c10.91,24.01,17.78,49.31,23,75.1
	c0.57,2.79,0.26,5.91,3.64,8.43c0.62-0.91,1.47-1.84,1.98-2.93c25.2-53.19,101.02-49.14,135.11-0.41
	c25.68,36.71,35.06,78.47,39.77,122.16c7.82,72.6-9.35,142.04-24.33,211.94c-7.17,33.43-12.36,67.29-18.4,100.97
	c-0.86,4.82,1.46,8.42,4.04,12.45c23.41,36.57,42.56,75.21,54.63,117.07c9.52,33.03,14.56,66.76,16.63,101.09
	c1.2,19.92,2.87,39.76,1.93,59.75c-2.87,60.73-16.09,118.88-41.12,174.51c-30.31,67.37-72.68,126.04-125.39,177.39
	c-36.03,35.09-76.18,64.9-120.29,89.09c-7.31,4.01-9.83,9.47-10.74,16.35c-5.73,43-6.79,86.18-3.42,129.4
	c1.19,15.27-1.42,30.84,3.48,45.82c0.35,6.23,0.38,12.5,1.1,18.68c5.26,44.87-15.14,87.15-52.4,108.3
	c-40.1,22.76-84.19,19.29-121.59-10.04c-36.26-28.43-57.84-67.19-75.6-108.59c-1.6-3.74-1.77-8.68-6.61-11.09
	c-2.41,31.63,1.43,62.4,1.67,93.21c0.53,68.54-63.34,119.93-129.51,104.78c-32.96-7.55-56.91-28.73-77.14-54.47
	C5472.34,1256.83,5453.93,1207.49,5440.54,1155.92z M5158.93-78.88c-6.98,5.49-8.69,13.77-11.35,21.54
	c-8.87,22.86-17.54,45.78-18.88,70.66c-4.8,11.84-14.3,15.66-26.33,17.16c-47.76,5.95-92.18,22.02-133.87,45.86
	c-6.37,3.64-12.78,7.31-16.81,15.58c3.42,0,5.41,0.08,7.39-0.01c49.14-2.42,97.1,6.33,145.02,15.34
	c10.44,1.96,16.74,7.33,17.9,19.09c2.22,22.37,6.05,44.55,12.04,66.28c16.53,59.94,43.17,114.4,86.95,159.49
	c55.05,58.22,120.69,88.77,202.42,78.21c7.44-0.96,11.88-3.87,15.87-9.92c27.33-41.46,57.7-80.7,88.2-119.84
	c13.29-17.06,28.03-32.99,39.77-51.24c32.24-36.59,61.58-75.49,90.47-114.7c46.04-62.5,87.6-127.57,113.7-201.41
	c4.56-12.91,6.09-25.09,3.95-38.81c-15.35-98.43-101.44-180.45-200.26-189.92c-55.31-11.9-109.94-6.71-163.91,7.68
	c-32.46,8.66-64.23,19.56-92.41,38.72c-12.7,4.38-23.49,12.23-34.07,20.04c-17.18,12.69-35.79,23.88-48.48,41.84
	c-9.96,5.77-17.24,14.23-23.6,23.6c-11.94,12.9-23.15,26.35-31.02,42.25C5172.04-108.3,5162.13-95.38,5158.93-78.88z
	 M5454.96-333.99c17.68-1.09,35.35-2.19,53.26-3.3c-0.56-1.36-0.65-2.3-1.15-2.66c-3.05-2.17-6.15-4.29-9.33-6.26
	c-61.61-38.07-128.94-57.3-200.99-60.83c-6.46-0.32-15.56-3.21-18.77,2.4c-3.75,6.55,2.28,13.94,6.24,20.24
	c9.92,23.66,25.89,43.46,40.98,63.78c14.8,19.92,14.92,19.66,38.54,10.86c9.72-3.62,19.73-6.46,29.57-9.78
	C5413.4-326.28,5434.55-328.58,5454.96-333.99z M5151.59,321.84c0.27,0.42,0.53,0.83,0.8,1.25c-0.03-0.21,0.01-0.52-0.11-0.62
	c-0.24-0.21-0.58-0.31-0.88-0.45c-0.98-2.26-1.7-4.67-2.97-6.75c-28.38-46.42-46.42-96.72-56.4-150.05
	c-4.71-25.2-4.67-25.72-29.94-30c-34.12-5.78-68.42-10.84-103.19-7.91c-17.4,1.47-18.2,3.64-9.58,18.44
	c0.42,0.72,0.88,1.41,1.35,2.11c48.67,72.83,110.54,131.03,189.24,170.51C5143.54,320.18,5147.03,322.93,5151.59,321.84z
	 M5574.6,1251.13c14.96-13.01,28.41-9.1,32.85,9.91c3.8,16.26,6.16,32.68,3.21,49.46c-0.58,3.29-2.68,7.69,1.55,9.94
	c6.93,3.69,23.8-5.97,25.33-14.33c3.12-16.99-1.15-32.9-6.95-48.72c-4.32-11.79-0.33-20.79,9.88-24.56
	c9.52-3.51,17.95,0.58,22.53,11.86c3.49,8.6,6.01,17.59,9.6,28.3c7.69-17.75,4.2-34.16,3.45-50.39
	c-2.03-43.73-3.45-87.41,11.91-129.54c5.36-11.77,13.24-21.62,22.37-30.73c18.57-18.53,40.52-32.39,62.52-46.23
	c1.35-0.49,3.22-0.51,2.52-2.82l-0.11,0.18c3.18,1.52,5.58-0.59,8.07-1.86c27.85-14.21,56.92-25.59,86.36-35.89
	c71.2-24.92,135.94-60.67,191.29-112.44c31.4-29.36,60.5-60.7,83.17-97.52c3.02-3.97,6.26-7.78,9.02-11.92
	c102.72-153.86,101.61-361.73-5.96-507.19c-30.73-41.55-61.79-82.85-92.5-124.41c-13.29-17.99-21.75-38.24-26.88-60.01
	c-9.92-42.1-4.96-84.62-3.93-127.03c1.56-64.59-3.95-128.25-25.8-189.58c-6.99-19.61-15.71-38.58-32.18-52.58
	c-31.62-32.82-76.07-21.98-90.02,23.61c-26.8,87.61-52.04,175.7-83.67,261.76c-19.67,42.81-42.19,84-68.33,123.25
	c-51.36,77.12-111.2,147.73-168.32,220.45c-31.89,40.6-63.97,81.09-91.18,125.11c-8.54,13.26-17.73,26.16-25.47,39.87
	c-13.69,24.23-28.32,48.06-37.21,74.7c-6.88,11.98-11.68,24.77-14.88,38.19c-1.39,2.97-3.15,5.82-4.1,8.92
	c-13.91,45.31-20.81,91.55-18.25,139.02c0.05,21.86,3.28,43.34,7.57,64.7c8.54,45.16,24.28,87.71,46.43,127.93
	c12.45,23.97,27.39,46.41,45.09,66.65c9.81,11.21,13.9,21.93,8.16,35.81c-3.82,7.63-4.59,15.92-4.72,24.21
	c-1.22,77.16,20.88,147.09,65.85,209.7c9.03,12.57,20.48,22.98,33.33,31.84c6.84,4.72,9.13,2.59,10.16-4.76
	c1.59-11.4-0.2-22.52-2.69-33.46C5572.13,1263.79,5571.75,1257.49,5574.6,1251.13z M5827.16,1200.8
	c3.36-9.43,9.84-14.32,20.01-13.08c9.97,1.21,13.64,8.51,15.53,17.17c3.57,16.39,4.91,32.9,3.02,49.67
	c-0.38,3.39-2.95,8.5,4.15,9.49c11.84,1.66,22.3-6.17,23.25-18.06c1.21-15.25-1.59-29.77-7.24-43.98
	c-4.55-11.42-0.79-21.3,8.64-25.15c10.13-4.13,19.36,0.67,24.09,13.16c3.22,8.51,5.67,17.31,8.47,25.99
	c9.59-37.3,0.29-74.32-0.65-111.35c-0.96-37.7,0.23-75.28,2.55-114.08c-28.78,11.38-56.15,22.2-83.52,33.02
	c-41.06,13.68-78.46,33.66-110.21,63.54c-4.24,3.99-4.76,7.55-3.31,13.11c9.73,37.26,23.75,72.65,44.85,104.99
	c11.88,18.22,25.67,34.73,44.02,47.07c6.81,4.58,9.3,4.48,10.49-4.51C5833.44,1231.7,5828.03,1216.5,5827.16,1200.8z
	 M6146.37-191.79c-27.08-20.3-54.6-13.29-65.2,18.67c-11.29,34.04-24.66,67.85-22.7,105.04c0.95,18.1-0.27,36.31-0.5,54.47
	c-3.71,38.97-0.22,76.81,21.99,110.28c22.8,34.35,48.93,66.31,74.28,98.8c0.28,0.36,1.41,0.04,2.43,0.04
	c10.31-49.63,20.73-99.21,30.83-148.86c2.4-11.81,4.14-23.79,5.53-35.77c5.58-48,4.9-95.69-9.69-142.25
	C6176.11-154.42,6167.65-177.14,6146.37-191.79z M4850.82,797.85c5.66,15.91,15.93,29.16,25.39,42.75
	c79,113.45,181.8,189.36,323.29,203.7c74.61,7.56,147.06-3.67,218.33-25.27c6.8-2.06,6.55-4.22,2.88-9.19
	c-12.65-17.13-24.28-34.98-34.06-53.89c-3.65-7.07-7.37-7.73-14.8-6.01c-46.84,10.83-94.05,16.84-142.46,13.79
	c-111.06-7.02-199.57-56.41-270.59-140.29c-17.55-20.73-31.58-43.93-47.8-65.57c-12.87-26.94-28.28-52.68-38.94-80.67
	c-6.79-17.84-12.11-36.29-19.67-53.78c-8.02-18.53-26.9-26.01-44.44-19.47c-18.39,6.86-28.02,24.94-23.19,44.14
	c9.9,39.35,26.5,76.2,44.33,112.34C4835.38,773.2,4839.95,787.53,4850.82,797.85z M5246.62-375.42
	c-4.99,41.22-1.95,81.43,10.8,121.31c15.52-9.61,29.56-18.58,43.91-27.02c5.07-2.98,6.53-5.02,2.32-10.23
	C5282.42-317.63,5263.14-345.25,5246.62-375.42z"/>
<path class="st3" d="M6341.79-592.95c-2.19,38.84-14.05,73.37-45.14,99.1c-4.24,3.51-4.45,6.54-3.08,11.5
	c11.6,41.93,3.31,80.55-19.65,116.81c-10.4,16.43-25.39,25.91-44.03,28.45c-15.34,2.09-28.47-4.95-39.25-15.6
	c-25.55-25.21-44-55.42-59.18-87.57c-4.11-8.71-6.52-8.33-13.72-3.82c-18.39,11.5-37.27,6.61-47.66-12.54
	c-3.87-7.14-6.92-6.64-13.14-3.82c-34.3,15.5-69.75,27.38-107.33,31.83c-15.56,1.84-30.63-0.19-45.23-6.51
	c-22.61-9.79-31.27-28.13-33.33-51.21c-3.2-35.8,11.29-65.31,32.67-92.25c4.24-5.34,9.67-10.71,15.74-13.39
	c10.33-4.55,6.13-10.53,4.15-17.35c-12.49-43.12-8.07-83.98,21.85-118.54c18.43-21.29,53.52-24.39,83.96-4.58
	c30.98,20.17,51.23,50.32,73.15,78.9c1.24,1.62,1.91,3.8,3.38,5.11c3.2,2.82,2.79,11.51,9.84,7.84c6.41-3.33,3.62-9.7,1.76-14.82
	c-3.73-10.28-8.18-20.3-11.73-30.64c-4.52-13.14-1.37-22.24,8.18-25.67c10.16-3.65,19.41,1.08,24.44,12.97
	c4.17,9.85,8.01,19.84,11.74,29.86c2.75,7.38,6.26,8.73,12.79,3.49c8.18-6.56,16.92-12.44,25.62-18.31
	c10.03-6.77,22.74-4.9,28.67,3.86c6.05,8.96,3.25,17.6-8.27,25.8c-9.09,6.47-18.12,13.01-27.19,19.51
	c-4.28,3.07-8.67,6.88-4.6,12.16c3.36,4.35,6.9-0.45,10.19-2.11c25.57-12.93,51.31-26.11,79.62-31.33
	c35.52-6.55,62.05,2.07,73.06,39.05C6342.4-608.89,6340.51-600.98,6341.79-592.95z M6159.97-499.97
	c-2.87,5.78-8.17,10.77-5.86,18.24c11.79,38.1,32.05,71.35,59.15,100.27c10.8,11.52,19.47,9.86,29.9-3.02
	c17.33-23.26,22.87-49.59,18.76-77.79c-2.97-20.35-16.76-34.84-29.93-49.4c-7.32-8.1-7.6-16.86-0.02-24.48
	c7.67-7.7,16.54-6.88,24.55,0.11c3.75,3.27,7.3,6.94,10.19,10.96c4.01,5.57,7.29,5.11,11.63,0.41
	c19.89-21.54,29.81-46.9,28.06-76.13c-1.08-17.99-10-25.15-27.58-20.8c-33.75,8.35-65.53,21.7-93.18,43.42
	c-3.14,2.47-6.54,4.88-7.1,9.75C6175.82-544.69,6167.88-522.33,6159.97-499.97z M5928.1-465.14c3.3,0.34,6.64,1.17,9.9,0.94
	c42.66-3.06,81.87-17.27,119.31-37.17c4.24-2.25,5.31-5.78,5.67-10.26c2.32-29.36,10.22-57.3,22.82-83.8
	c3.29-6.92,2.77-12.35-0.84-18.61c-16.97-29.47-38.5-55.35-62.55-79.15c-6.73-6.66-14.22-12.95-24.09-14.93
	c-13.2-5.7-22.86,0.1-29.95,10.49c-14.33,21.02-18.55,44.31-12.8,69.15c4.65,20.11,7.64,21.7,27.56,15.95
	c2.89-0.05,5.78-0.01,8.67-0.18c13.94-0.83,21.67,4.11,23.13,14.86c1.43,10.53-6.28,18.29-20.35,20.04
	c-9.02,1.12-18.09,1.77-26.51,5.62c-34.83,6.83-63.94,44.23-61.58,79.14C5907.58-476.51,5912.67-469.93,5928.1-465.14z
	 M6143.52-588.54c0-5.41,0.1-10.83-0.04-16.24c-0.06-2.36,0.6-5.51-2.44-6.38c-2.75-0.79-4.47,1.74-6.05,3.55
	c-1.9,2.18-3.65,4.54-5.15,7.01c-20.74,34.12-32.54,70.8-31.47,111.08c0.1,3.84-1.73,9.48,3.56,10.62c3.75,0.81,6.1-3.85,8.11-6.88
	C6130.65-516.93,6142.37-551.03,6143.52-588.54z"/>
<path class="st17" d="M5965.92-306.94c16.48,14,25.2,32.97,32.18,52.58c21.85,61.33,27.36,124.98,25.8,189.58
	c-1.03,42.4-5.98,84.93,3.93,127.03c5.13,21.77,13.58,42.02,26.88,60.01c30.71,41.56,61.77,82.86,92.5,124.41
	c107.58,145.46,108.69,353.32,5.96,507.19c-2.76,4.14-6,7.95-9.02,11.92c-4.58-1.43-7.87,1.09-11.44,3.39
	c-35.22,22.69-74,36.96-115.36,40.65c-76.51,6.83-148.93-7.69-215.39-48.07c-7.95-4.83-14.71-12.38-24.78-13.43l0.1-0.2
	c-0.78-0.91-1.56-1.83-2.34-2.74c-17.54-34.23-35.07-68.47-52.61-102.7c-0.96-3.59-1.59-7.31-2.91-10.77
	c-15.44-40.32-16.12-81.28-5.46-122.72c13.02-50.61,37.4-96.05,63.67-140.73c46.8-79.6,80.15-163.04,70.26-258.06
	c-3.47-33.37-11.67-65.41-30.31-93.99c-0.25-1.47-0.49-2.94-0.74-4.41c9.71-25.68,19.93-51.19,29.03-77.09
	c22.08-62.83,37.66-127.53,54.13-191.96C5910-296.2,5926.54-308.79,5965.92-306.94z M5987.78-193.86
	c0.13-26.84-9.27-34.62-34.22-30.21c-28.67,5.08-35.66,16.44-25.89,42.1c6.04,15.87,19.3,26.2,32.31,25.17
	c13.53-1.07,24.96-14.08,27.51-31.44C5987.84-190.69,5987.75-193.22,5987.78-193.86z M5932.79-237.8
	c-1.26-8.23-2.58-16.46-10.59-21.28c-3.19-1.92-6.47-1.47-8.94,1.45c-6,7.11-5.85,15.08-2.97,23.36c2.26,6.5,5.36,13.34,13.31,12.23
	C5931.87-223.21,5931.66-231.28,5932.79-237.8z M5935.79-254.25c0.33,6.37,2.2,14.39,9.99,19.27c2.85,1.78,6.55,1.51,9.05-1.5
	c5.58-6.73,5.57-14.34,3.18-22.26c-0.12-0.39-0.12-0.83-0.25-1.21c-2.24-6.49-5.18-13.64-13.18-12.29
	C5936.77-270.94,5935.73-263.45,5935.79-254.25z M5987.86-249.76c-0.32-8.52-2.89-16.08-10.83-20.76c-2.92-1.72-5.8-0.57-7.88,1.61
	c-6.52,6.82-6.24,14.88-3.46,23.11c2.15,6.37,4.85,13.73,12.88,12.73C5987.55-234.21,5987.57-242.43,5987.86-249.76z"/>
<path class="st18" d="M5722.34,642.66c17.54,34.23,35.07,68.47,52.61,102.7c0.78,0.91,1.56,1.83,2.34,2.74c0,0-0.1,0.2-0.1,0.19
	c-0.31,4.75,1.8,8.85,3.41,13.14c22.36,59.38,31.29,120.16,19.68,183.25c-4.49,24.4-15.62,46.24-25.02,68.78
	c0,0,0.11-0.18,0.11-0.17c-0.84,0.94-1.68,1.88-2.52,2.82c-21.99,13.85-43.95,27.7-62.52,46.23c-9.13,9.1-17.01,18.96-22.37,30.73
	c-38.75,11.91-78.09,14.03-117.97,7.07c-36.69-12.27-69.68-30.88-98.25-57.11c5.75-13.89,1.65-24.6-8.16-35.81
	c-17.7-20.24-32.65-42.68-45.09-66.65c5.02-1.86,10-3.8,15.04-5.57c27.29-9.54,45.06-36.28,43.66-65.79
	c-1.31-27.84-18.97-47.61-49.26-54.66c-18.46-4.3-37.27-0.56-55.88-1.91c-4.29-21.36-7.52-42.85-7.58-64.7
	c9.32,4.63,18.53,9.49,27.98,13.84c23.68,10.91,48.12,19.21,74.69,16.13c28.69-3.33,50.28-18.43,61.81-44.64
	c10.86-24.67,9.76-49.8-7.7-71.94c-14.84-18.82-35.74-28.01-58.35-33.76c-26.27-6.68-52-14.83-76.07-27.56
	c3.2-13.42,8-26.21,14.88-38.19c17.31,6.29,34.86,11.36,53.56,8.19c23.99-4.06,41.82-17.15,50.82-39.61
	c8.78-21.91,6.23-43.31-9.79-61.81c-8.64-9.98-20.09-16-31.91-21.35c27.21-44.02,59.29-84.51,91.18-125.11
	c57.11-72.71,116.95-143.33,168.32-220.45c26.14-39.24,48.66-80.44,68.33-123.25c9.64,10.13,16.53,22.27,24.6,33.55
	c0.25,1.47,0.49,2.94,0.74,4.41c-6.4,0.87-7,6.75-8.8,11.03c-22.57,53.44-49.26,104.75-79.6,154.15
	c-29.48,48-57.25,96.7-73.41,151.21c-14.74,49.71-20.7,100.24-12.62,151.48c6.87,43.55,22.21,84.55,47.4,121.08
	C5699.78,618.73,5707.57,633.79,5722.34,642.66z"/>
<path class="st19" d="M5575.12-295.53c98.82,9.47,184.92,91.49,200.26,189.92c2.14,13.72,0.61,25.9-3.95,38.81
	c-26.11,73.85-67.67,138.92-113.7,201.41c-28.89,39.21-58.23,78.11-90.47,114.7c-4.92-0.67-8.78,2.07-12.91,3.98
	c-59.62,27.59-121.48,39.81-186.74,25.93c-32.37-6.89-62.84-18.66-88.78-40.09c5.9-7.63,13.35-13.66,20.56-19.96
	c16.92-14.8,34.43-29.01,50.36-44.82c31.87-31.61,42.79-69.38,30.1-113.19c-7.74-26.71-10.97-53.8-5.36-81.39
	c9.56-47.04,31.79-85.05,77.91-104.48c16.8-7.08,34.7-11.62,52.21-16.95c30.72-9.35,48.76-29.97,52.66-61.53
	C5561.12-234.43,5561.1-266.29,5575.12-295.53z M5472.09-86.29c-12-15.01-22.97-14.9-33.41,0.82
	c-7.57,11.39-14.79,23.03-21.64,34.87c-9.33,16.13-4.06,25.67,14.8,27.69c1.63,5.77,7.2,5.64,11.19,6.17
	c7.79,1.03,15.79,0.55,23.7,0.69c0.38,28.39-10.1,51.89-31.77,70.3c-7.35,6.24-15.6,10.99-24.49,14.79
	c-10.3,4.39-14.15,12.43-9.94,20.65c4.74,9.26,12.62,10.04,21.31,6.45c4.98-2.06,10.05-4.31,14.39-7.42
	c6.34-4.55,12.17-4.74,19.74-2.63c28.56,7.98,57.63,13.84,87.49,12.43c26.57-1.25,51.66-6.48,65.44-33.29
	c11.19-21.79,6.49-42.97-3.15-63.64c-11.96-25.63-29.47-47.35-49.42-67.1c-5.67-5.61-9.01-10.5-7.34-19.33
	c1.58-8.39,0.51-17.46-0.44-26.12c-0.99-9.02-6.41-14.74-16.01-13.67c-9.42,1.05-13.43,7.22-13,16.62
	c0.32,7.07,0.98,14.25,0.16,21.22c-1.8,15.27-9.25,26.46-25.05,30.52C5490.64-68.92,5485.83-80.96,5472.09-86.29z"/>
<path class="st8" d="M5575.12-295.53c-14.02,29.23-14,61.1-17.87,92.34c-3.91,31.57-21.95,52.18-52.66,61.53
	c-17.51,5.33-35.41,9.87-52.21,16.95c-46.12,19.43-68.35,57.43-77.91,104.48c-5.61,27.59-2.38,54.68,5.36,81.39
	c12.7,43.81,1.77,81.58-30.1,113.19c-15.93,15.8-33.44,30.02-50.36,44.82c-7.21,6.3-14.65,12.33-20.56,19.96
	c-1.48,0.95-2.95,1.9-4.43,2.85c-0.58-6.63-5.75-10.13-10.26-13.46c-16.25-11.99-29.02-27.15-40.8-43.25
	c-36.16-49.38-51.88-105.76-56.62-165.88c0,0-0.24-0.6-0.24-0.6c5.4,0.06,10.85,0.65,16.18,0.09c15.87-1.65,31.11-15.81,33.71-30.77
	c2.31-13.27-4.94-26.5-20.04-34.01c-7.72-3.84-16.4-5.77-24.64-8.56c-0.92-7.85,0.54-15.45,2.39-23.01
	c7.07-0.27,14.24-1.43,21.2-0.67c30.58,3.33,61.07,7.59,91.66,10.76c16.4,1.7,32.77,6.21,49.51,0.91
	c29.21-9.24,52.27-43.46,27.04-70.92c-11.03-12.01-25.97-17.59-41.58-21.59c-36.12-9.24-72.63-7.77-109.24-4.66
	c6.36-9.37,13.64-17.83,23.6-23.6c14.56,0.14,29.17,1.03,43.68,0.23c17.19-0.95,33.81-4.28,46.5-17.88
	c15.68-16.8,12.95-33.52-7.64-44.23c28.18-19.16,59.95-30.07,92.41-38.72C5465.18-302.24,5519.81-307.42,5575.12-295.53z
	 M5348.43,51.09c-35.65,1.14-62.46,17.54-78.44,49.02c-16.47,32.45-13.25,64.55,7.73,94.45c8.57,12.21,17.78,14.74,27.31,8.32
	c8.98-6.04,9.67-16.92,1.46-28.44c-13.31-18.67-15.63-38.42-4.98-58.78c10.62-20.32,27.94-29.94,51.03-29.55
	c15.48,0.26,24.06-6.38,23.88-17.55c-0.18-10.96-9-17.32-24.22-17.47C5350.93,51.08,5349.68,51.09,5348.43,51.09z M5520.15-270.73
	c-27.9,4.18-49.62,17.55-61.57,43.52c-11.77,25.58-9.8,51.24,4.64,75.31c4.97,8.28,14.04,9.06,22.23,4.61
	c7.73-4.2,10.73-11.45,8.19-20.25c-0.8-2.77-2.35-5.33-3.48-8.01c-10.93-26.05,1.14-51.32,28.16-58.99c2.81-0.8,5.74-1.25,8.42-2.34
	c9.13-3.74,12.29-11.02,10.48-20.23C5535.45-266.18,5528.87-269.98,5520.15-270.73z"/>
<path class="st18" d="M4911,757.87c16.22,21.65,30.25,44.85,47.8,65.57c71.02,83.88,159.53,133.27,270.59,140.29
	c48.41,3.06,95.63-2.95,142.46-13.79c7.43-1.72,11.15-1.06,14.8,6.01c9.77,18.91,21.4,36.76,34.06,53.89
	c3.67,4.97,3.92,7.13-2.88,9.19c-71.28,21.61-143.72,32.84-218.33,25.27c-141.48-14.34-244.29-90.25-323.29-203.7
	c-9.46-13.59-19.73-26.84-25.39-42.75C4868.21,780.5,4887.08,765.39,4911,757.87z"/>
<path class="st20" d="M5775.26,1013.46c9.4-22.54,20.53-44.38,25.02-68.78c11.61-63.09,2.68-123.87-19.68-183.25
	c-1.61-4.28-3.72-8.38-3.41-13.14c10.07,1.06,16.83,8.61,24.78,13.44c66.46,40.38,138.88,54.9,215.39,48.07
	c41.36-3.69,80.14-17.96,115.36-40.65c3.57-2.3,6.86-4.82,11.44-3.39c-22.67,36.82-51.78,68.16-83.17,97.52
	c-55.35,51.76-120.09,87.51-191.29,112.44c-29.44,10.31-58.51,21.68-86.36,35.89C5780.84,1012.87,5778.44,1014.98,5775.26,1013.46z"
	/>
<path class="st20" d="M5274.39,241.98c1.48-0.95,2.96-1.9,4.43-2.85c25.94,21.44,56.41,33.21,88.78,40.09
	c65.26,13.88,127.13,1.67,186.74-25.93c4.13-1.91,7.99-4.65,12.91-3.98c-11.74,18.25-26.49,34.18-39.77,51.24
	c-30.5,39.15-60.87,78.38-88.2,119.84c-3.99,6.05-8.43,8.95-15.87,9.92c-81.73,10.56-147.37-19.99-202.42-78.21
	C5227.52,309.94,5244.42,272.79,5274.39,241.98z"/>
<path class="st21" d="M6146.37-191.79c21.29,14.65,29.74,37.36,36.97,60.43c14.6,46.56,15.28,94.25,9.69,142.25
	c-1.39,11.98-3.13,23.96-5.53,35.77c-10.11,49.65-20.53,99.23-30.83,148.86c-1.02,0-2.15,0.31-2.43-0.04
	c-25.35-32.49-51.49-64.46-74.28-98.8c-22.21-33.46-25.7-71.31-21.99-110.28c4.82-5.57,5.77-12.75,7.56-19.43
	c10.44-38.83,19.7-78,31.14-116.54C6106.02-181.09,6117.15-193.02,6146.37-191.79z M6168.6-98.64c0.15-17.85-5.13-25.05-18.46-25.18
	c-21.01-0.21-33.56,7.66-33.96,21.29c-0.5,17.32,14.29,35.58,28.65,35.37C6158.09-67.35,6168.46-81.08,6168.6-98.64z
	 M6103.46-138.76c1.6,7.22,1.5,16.72,11.65,17.35c7.56,0.48,8.19-6.98,8.07-12.78c-0.17-7.62-1.6-15.85-10.69-17
	C6104.53-152.2,6104.52-144.72,6103.46-138.76z M6168.6-143.68c-0.36-7.49-1.74-15.88-10.62-17.03c-7.57-0.98-8.92,6.83-8.51,12.45
	c0.56,7.66,1.3,17.46,11.3,18.1C6167.98-129.69,6168.41-137.41,6168.6-143.68z M6145.76-144.01c-1.41-6.97-1.35-15.92-10.67-17.36
	c-8.12-1.25-9.03,6.28-8.94,12.04c0.12,7.54,1.13,16.23,10.31,17.69C6144.51-130.36,6144.82-137.83,6145.76-144.01z"/>
<path class="st18" d="M5274.39,241.98c-29.98,30.81-46.87,67.96-53.39,110.13c-43.79-45.1-70.43-99.55-86.96-159.49
	c-5.99-21.72-9.82-43.91-12.04-66.28c-1.17-11.75-7.46-17.12-17.9-19.09c-47.92-9.01-95.88-17.76-145.02-15.34
	c-1.98,0.1-3.97,0.01-7.39,0.01c4.03-8.27,10.44-11.93,16.81-15.58c41.69-23.84,86.11-39.91,133.87-45.86
	c12.04-1.5,21.53-5.31,26.34-17.15c12.67,2.02,25.34,4.04,38,6.06c4.75,60.12,20.47,116.5,56.62,165.88
	c11.79,16.1,24.56,31.26,40.8,43.25C5268.64,231.85,5273.81,235.35,5274.39,241.98z"/>
<path class="st22" d="M5386.85,600c24.07,12.73,49.8,20.88,76.07,27.56c22.61,5.75,43.51,14.94,58.35,33.76
	c17.46,22.14,18.56,47.27,7.7,71.94c-11.54,26.21-33.12,41.32-61.81,44.64c-26.57,3.08-51.01-5.22-74.69-16.13
	c-9.45-4.35-18.66-9.21-27.98-13.84c-2.56-47.48,4.35-93.72,18.26-139.02C5383.7,605.82,5385.46,602.97,5386.85,600z"/>
<path class="st21" d="M5845.46,1023.6c27.37-10.82,54.74-21.64,83.52-33.02c-2.32,38.8-3.51,76.38-2.55,114.08
	c0.94,37.03,10.23,74.06,0.65,111.35c-2.8-8.67-5.25-17.47-8.47-25.99c-4.73-12.49-13.96-17.3-24.09-13.16
	c-9.43,3.85-13.19,13.73-8.64,25.15c5.66,14.2,8.46,28.73,7.24,43.98c-0.95,11.89-11.4,19.72-23.25,18.06
	c-7.1-0.99-4.54-6.1-4.15-9.49c1.89-16.77,0.55-33.28-3.02-49.67c-1.89-8.66-5.56-15.96-15.53-17.17
	c-10.18-1.24-16.66,3.65-20.01,13.08c-12.57-20.41-20.27-42.84-23.29-66.28c-4.75-36.93-1.99-72.3,29.76-98.79
	C5837.85,1032.21,5843.86,1029.88,5845.46,1023.6z"/>
<path class="st21" d="M5570,1100.14c39.88,6.96,79.22,4.84,117.97-7.07c-15.36,42.13-13.94,85.81-11.91,129.54
	c0.75,16.23,4.24,32.65-3.45,50.39c-3.59-10.72-6.11-19.71-9.6-28.3c-4.58-11.28-13.01-15.38-22.53-11.86
	c-10.21,3.77-14.2,12.76-9.88,24.56c5.8,15.82,10.07,31.73,6.95,48.72c-1.53,8.36-18.4,18.02-25.33,14.33
	c-4.23-2.25-2.13-6.66-1.55-9.94c2.95-16.78,0.6-33.21-3.21-49.46c-4.44-19-17.9-22.91-32.85-9.91c-3.66-0.21-4.41-2.93-5.43-5.79
	c-11.25-31.65-20.21-63.53-19.89-97.77C5549.47,1128.06,5553.44,1111.76,5570,1100.14z"/>
<path class="st9" d="M5151.59,321.84c-4.56,1.09-8.05-1.66-11.68-3.48c-78.71-39.48-140.57-97.68-189.24-170.51
	c-0.46-0.69-0.93-1.39-1.35-2.11c-8.61-14.8-7.82-16.97,9.58-18.44c34.77-2.93,69.07,2.13,103.19,7.91
	c25.27,4.28,25.23,4.79,29.94,30c9.97,53.34,28.01,103.63,56.4,150.05c1.27,2.08,1.99,4.49,2.97,6.75L5151.59,321.84z"/>
<path class="st23" d="M5212.65-163.64c36.61-3.11,73.13-4.58,109.24,4.66c15.61,3.99,30.55,9.58,41.58,21.59
	c25.23,27.47,2.17,61.69-27.04,70.92c-16.74,5.29-33.1,0.79-49.51-0.91c-30.6-3.17-61.08-7.42-91.66-10.76
	c-6.96-0.76-14.13,0.4-21.2,0.66c-0.07-0.44-0.09-0.88-0.04-1.32c1.32-5.19,3.29-10.32,3.82-15.59c0.91-9.07,8.05-17.26,3.79-27.01
	C5189.51-137.29,5200.71-150.74,5212.65-163.64z"/>
<path class="st20" d="M5570,1100.14c-16.56,11.62-20.53,27.92-20.71,47.44c-0.32,34.23,8.64,66.12,19.89,97.77
	c1.02,2.86,1.77,5.58,5.43,5.79c-2.84,6.36-2.47,12.66-0.93,19.43c2.49,10.95,4.29,22.06,2.69,33.46
	c-1.03,7.35-3.31,9.47-10.16,4.76c-12.85-8.86-24.3-19.27-33.33-31.84c-44.97-62.61-67.07-132.54-65.85-209.7
	c0.13-8.29,0.9-16.58,4.72-24.21C5500.31,1069.26,5533.31,1087.87,5570,1100.14z"/>
<path class="st22" d="M4911,757.87c-23.92,7.52-42.8,22.63-60.18,39.99c-10.87-10.32-15.43-24.66-21.73-37.42
	c-17.83-36.14-34.43-72.99-44.33-112.34c-4.83-19.21,4.8-37.29,23.19-44.14c17.54-6.54,36.42,0.93,44.44,19.47
	c7.57,17.49,12.88,35.94,19.67,53.78C4882.72,705.19,4898.13,730.93,4911,757.87z"/>
<path class="st20" d="M5816.84,11.98c-8.07-11.28-14.97-23.42-24.6-33.55c31.63-86.06,56.87-174.15,83.67-261.76
	c13.95-45.59,58.4-56.43,90.02-23.61c-39.39-1.84-55.92,10.75-65.92,49.87c-16.48,64.43-32.05,129.13-54.13,191.96
	C5836.76-39.21,5826.55-13.71,5816.84,11.98z"/>
<path class="st20" d="M5845.46,1023.6c-1.61,6.28-7.62,8.61-11.84,12.13c-31.75,26.49-34.51,61.86-29.76,98.79
	c3.02,23.44,10.73,45.88,23.29,66.28c0.87,15.69,6.28,30.9,4.14,47c-1.2,8.99-3.69,9.08-10.49,4.51
	c-18.36-12.34-32.14-28.84-44.02-47.07c-21.09-32.34-35.12-67.73-44.85-104.99c-1.45-5.56-0.94-9.12,3.31-13.11
	C5767,1057.26,5804.4,1037.28,5845.46,1023.6z"/>
<path class="st22" d="M5372.07,812.64c18.6,1.35,37.42-2.39,55.88,1.91c30.29,7.06,47.95,26.82,49.26,54.66
	c1.39,29.5-16.37,56.24-43.66,65.79c-5.04,1.76-10.03,3.71-15.04,5.57C5396.35,900.35,5380.61,857.8,5372.07,812.64z"/>
<path class="st22" d="M5464.41,447.23c11.82,5.36,23.27,11.38,31.91,21.35c16.02,18.5,18.57,39.9,9.79,61.81
	c-9,22.46-26.83,35.55-50.82,39.61c-18.7,3.16-36.25-1.9-53.56-8.19c8.89-26.65,23.52-50.47,37.21-74.71
	C5446.68,473.39,5455.87,460.49,5464.41,447.23z"/>
<path class="st9" d="M5454.96-333.99c-20.42,5.41-41.56,7.71-61.66,14.48c-9.84,3.31-19.85,6.15-29.57,9.78
	c-23.62,8.8-23.74,9.06-38.54-10.86c-15.09-20.32-31.06-40.12-40.98-63.78c23.39-0.53,46.07,4.12,68.4,10.24
	C5388.12-364.41,5423.13-353.19,5454.96-333.99z"/>
<path class="st24" d="M5454.96-333.99c-31.83-19.2-66.84-30.42-102.35-40.15c-22.33-6.12-45.01-10.77-68.4-10.24
	c-3.96-6.3-9.99-13.69-6.24-20.24c3.21-5.61,12.31-2.72,18.77-2.4c72.05,3.52,139.38,22.75,200.99,60.83
	c3.19,1.97,6.28,4.09,9.33,6.26c0.5,0.36,0.59,1.3,1.15,2.66C5490.31-336.18,5472.64-335.09,5454.96-333.99z"/>
<path class="st20" d="M6146.37-191.79c-29.22-1.24-40.35,10.69-49.7,42.22c-11.44,38.53-20.69,77.71-31.14,116.54
	c-1.8,6.68-2.74,13.86-7.56,19.43c0.24-18.16,1.45-36.37,0.5-54.47c-1.96-37.2,11.42-71,22.7-105.04
	C6091.76-205.07,6119.29-212.09,6146.37-191.79z"/>
<path class="st8" d="M5246.62-375.42c16.52,30.17,35.8,57.79,57.03,84.06c4.21,5.21,2.75,7.25-2.32,10.23
	c-14.35,8.44-28.39,17.41-43.91,27.02C5244.67-293.98,5241.63-334.19,5246.62-375.42z"/>
<path class="st23" d="M5318.8-249.12c20.59,10.71,23.31,27.44,7.64,44.23c-12.7,13.6-29.31,16.94-46.5,17.88
	c-14.51,0.8-29.11-0.09-43.68-0.23c12.68-17.96,31.29-29.15,48.47-41.84C5295.31-236.89,5306.1-244.74,5318.8-249.12z"/>
<path class="st22" d="M5166.71,19.39c-12.67-2.02-25.34-4.04-38-6.06c1.34-24.88,10.01-47.8,18.88-70.66
	c7.15,1.18,14.31,2.36,21.46,3.54c-2.56,24.13-2.81,48.35-2.57,72.58L5166.71,19.39z"/>
<path class="st18" d="M5169.04-53.79c-7.16-1.18-14.31-2.36-21.46-3.54c2.66-7.78,4.37-16.05,11.35-21.55
	c5.03,0.03,10.06,0.05,15.09,0.08c-0.05,0.44-0.03,0.88,0.04,1.32c-1.85,7.57-3.31,15.17-2.39,23.02
	C5170.8-54.23,5169.92-54.01,5169.04-53.79z"/>
<path class="st22" d="M5174.02-78.8c-5.03-0.03-10.06-0.05-15.09-0.08c3.2-16.5,13.11-29.43,22.7-42.52
	c4.26,9.75-2.88,17.94-3.79,27.01C5177.31-89.11,5175.34-83.99,5174.02-78.8z"/>
<path class="st9" d="M5151.39,322.01c0.3,0.14,0.64,0.24,0.88,0.45c0.12,0.11,0.08,0.41,0.11,0.62c-0.27-0.42-0.53-0.83-0.8-1.25
	C5151.59,321.84,5151.39,322.01,5151.39,322.01z"/>
<path class="st20" d="M5772.85,1016.11c0.84-0.94,1.68-1.88,2.52-2.82C5776.07,1015.6,5774.2,1015.62,5772.85,1016.11z"/>
<path class="st25" d="M5968.05-572.2c8.42-3.86,17.5-4.5,26.51-5.62c14.08-1.75,21.79-9.5,20.35-20.04
	c-1.46-10.75-9.18-15.68-23.13-14.86c-2.88,0.17-5.78,0.13-8.67,0.18c-12.42-34.64-11.23-67.12,15.19-95.6
	c9.88,1.98,17.36,8.27,24.09,14.93c24.05,23.81,45.58,49.68,62.55,79.15c3.6,6.26,4.12,11.7,0.84,18.61
	c-12.6,26.51-20.5,54.45-22.82,83.8c-0.35,4.49-1.43,8.01-5.67,10.26c-37.44,19.9-76.65,34.11-119.31,37.17
	c-3.26,0.23-6.6-0.6-9.9-0.94c-5.97-24.37-2.12-46.8,13.2-66.96c-0.32,3.72-0.96,7.44-0.91,11.16
	c0.16,14.55,10.12,24.27,24.41,24.05c14.17-0.21,23.94-10.64,23.47-25.05c-0.71-21.66-20.31-29.39-42.57-16.79
	C5949.04-552.62,5960.63-561.02,5968.05-572.2z M5982.68-653.81c-0.26,14.74,9.01,25.56,22.41,26.16
	c12.71,0.57,25.05-10.93,25.56-23.83c0.56-13.92-10.64-25.77-24.49-25.9C5993.23-677.5,5982.92-667.15,5982.68-653.81z"/>
<path class="st25" d="M6159.97-499.97c7.91-22.36,15.85-44.73,18.57-68.47c0.56-4.87,3.96-7.28,7.1-9.75
	c27.66-21.72,59.44-35.07,93.18-43.42c17.59-4.35,26.51,2.81,27.58,20.8c1.75,29.24-8.17,54.6-28.06,76.13
	c-4.34,4.7-7.62,5.16-11.63-0.41c-2.89-4.02-6.44-7.7-10.19-10.96c-8.01-6.99-16.88-7.81-24.55-0.11
	c-7.58,7.61-7.31,16.38,0.02,24.48c13.17,14.56,26.96,29.05,29.93,49.4c4.11,28.2-1.43,54.53-18.76,77.79
	c-4.17,0.1-7.26-2.71-9.69-5.13c-10.84-10.84-26.03-18.08-29.8-34.94c8.19,4.48,16.56,8.8,25.15,1.22
	c8.14-7.18,13.34-15.9,11.19-27.35c-1.75-9.33-6.81-16.82-16.47-17.92c-9.47-1.08-16.02,4.86-20.72,13.08
	c-6.1,10.67-2.59,20.76,0.89,30.98c-11.63-5.28-14.2-17.5-19.71-27.07C6175.04-467.18,6167.89-483.79,6159.97-499.97z
	 M6238.58-574.65c0.04,13.03,7.71,22.34,18.42,22.37c11.77,0.04,21.67-12.51,21.64-27.43c-0.03-13.14-7.57-22.26-18.44-22.31
	C6248.35-602.07,6238.53-589.65,6238.58-574.65z"/>
<path class="st23" d="M6143.52-588.54c-1.15,37.51-12.86,71.61-33.49,102.77c-2.01,3.03-4.35,7.69-8.11,6.88
	c-5.29-1.14-3.46-6.79-3.56-10.62c-1.08-40.28,10.72-76.97,31.47-111.08c1.5-2.47,3.25-4.83,5.15-7.01
	c1.58-1.81,3.31-4.34,6.05-3.55c3.05,0.87,2.38,4.02,2.44,6.38C6143.61-599.37,6143.52-593.95,6143.52-588.54z"/>
<path class="st26" d="M6159.97-499.97c7.92,16.17,15.07,32.79,24.03,48.36c5.51,9.57,8.08,21.79,19.71,27.07l-0.04-0.01
	c3.78,16.86,18.96,24.1,29.8,34.94c2.42,2.42,5.52,5.23,9.69,5.13c-10.42,12.88-19.1,14.55-29.9,3.02
	c-27.1-28.92-47.36-62.17-59.15-100.27C6151.8-489.2,6157.1-494.18,6159.97-499.97z"/>
<path class="st26" d="M5998.31-708.13c-26.42,28.47-27.61,60.95-15.19,95.6c-19.92,5.75-22.9,4.16-27.56-15.95
	c-5.75-24.84-1.53-48.13,12.8-69.15C5975.45-708.03,5985.12-713.83,5998.31-708.13z"/>
<path class="st26" d="M5968.05-572.2c-7.42,11.18-19.01,19.57-22.35,33.46c-0.37,2.93-2.01,5.03-4.4,6.63
	c-15.32,20.17-19.17,42.6-13.2,66.96c-15.42-4.8-20.52-11.37-21.63-27.92C5904.11-527.97,5933.21-565.36,5968.05-572.2z"/>
<path class="st8" d="M5722.34,642.66c-14.77-8.86-22.56-23.93-31.8-37.32c-25.19-36.53-40.53-77.53-47.4-121.08
	c-8.08-51.24-2.12-101.77,12.62-151.48c16.17-54.51,43.93-103.21,73.41-151.21c30.34-49.4,57.04-100.71,79.6-154.15
	c1.8-4.27,2.4-10.15,8.8-11.03c18.64,28.57,26.84,60.62,30.31,93.99c9.89,95.02-23.46,178.46-70.26,258.06
	c-26.26,44.67-50.65,90.12-63.67,140.73c-10.66,41.44-9.98,82.41,5.46,122.72C5720.75,635.34,5721.39,639.06,5722.34,642.66z"/>
<path class="st9" d="M5987.78-193.86c-0.03,0.64,0.06,3.17-0.3,5.63c-2.55,17.36-13.98,30.37-27.51,31.44
	c-13.01,1.03-26.26-9.3-32.31-25.17c-9.77-25.66-2.78-37.03,25.89-42.1C5978.5-228.49,5987.9-220.7,5987.78-193.86z"/>
<path class="st9" d="M5932.79-237.8c-1.13,6.52-0.92,14.59-9.19,15.75c-7.95,1.12-11.04-5.73-13.31-12.23
	c-2.88-8.28-3.03-16.25,2.97-23.36c2.47-2.92,5.75-3.37,8.94-1.45C5930.21-254.26,5931.53-246.03,5932.79-237.8z"/>
<path class="st9" d="M5935.79-254.25c-0.06-9.19,0.98-16.69,8.8-18c8-1.34,10.94,5.81,13.18,12.29c0.13,0.39,0.13,0.82,0.25,1.21
	c2.39,7.92,2.4,15.53-3.18,22.26c-2.5,3.01-6.21,3.28-9.05,1.5C5937.99-239.87,5936.12-247.89,5935.79-254.25z"/>
<path class="st9" d="M5987.86-249.76c-0.29,7.34-0.31,15.56-9.29,16.68c-8.04,1-10.73-6.36-12.88-12.73
	c-2.78-8.23-3.06-16.29,3.46-23.11c2.08-2.18,4.96-3.33,7.88-1.61C5984.96-265.84,5987.54-258.28,5987.86-249.76z"/>
<path class="st20" d="M5777.29,748.1c-0.78-0.91-1.56-1.83-2.34-2.74C5775.73,746.27,5776.51,747.19,5777.29,748.1z"/>
<path class="st3" d="M5431.84-22.92c-18.86-2.02-24.12-11.56-14.8-27.69c6.84-11.84,14.07-23.48,21.64-34.87
	c10.44-15.72,21.41-15.83,33.41-0.82c0.36,5.73,0.77,11.47,1.05,17.2c0.65,13.35,8.15,17.84,21.49,12.81
	c15.8-4.06,23.25-15.25,25.05-30.52c0.82-6.97,0.16-14.15-0.16-21.22c-0.42-9.39,3.58-15.57,13-16.62
	c9.61-1.07,15.02,4.65,16.01,13.67c0.95,8.66,2.02,17.72,0.44,26.12c-1.67,8.83,1.67,13.72,7.34,19.33
	c19.95,19.75,37.47,41.47,49.42,67.1c9.64,20.67,14.34,41.85,3.15,63.64c-13.77,26.81-38.86,32.04-65.44,33.29
	c-29.85,1.4-58.93-4.46-87.49-12.43c-7.57-2.12-13.4-1.92-19.74,2.63c-4.35,3.11-9.41,5.36-14.39,7.42
	c-8.7,3.59-16.57,2.81-21.31-6.45c-4.21-8.23-0.36-16.26,9.94-20.65c8.9-3.8,17.14-8.55,24.49-14.79
	c21.67-18.4,32.15-41.91,31.77-70.3c0.69-18.23-2.59-20.41-18.96-13C5442.59-26.72,5437.16-24.95,5431.84-22.92z M5575.19,8.55
	c-8.4-19.35-9.82-19.72-26.55-7.55c-16.01,11.64-29.35,25.98-38.38,43.41c-12.17,23.48-18.75,20.99,14.23,24.06
	c11.22,0.7,22.37,1.23,33.53-1.23c23.97-5.28,32.39-19.69,24.71-43.17C5580.93,18.58,5579.4,12.89,5575.19,8.55z"/>
<path class="st20" d="M5494.64-56.28c-13.35,5.03-20.84,0.54-21.49-12.81c-0.28-5.74-0.7-11.47-1.05-17.2
	C5485.83-80.96,5490.64-68.92,5494.64-56.28z"/>
<path class="st20" d="M5431.84-22.92c5.32-2.03,10.75-3.81,15.93-6.15c16.37-7.41,19.64-5.22,18.96,13
	c-7.91-0.14-15.9,0.34-23.7-0.69C5439.04-17.28,5433.47-17.15,5431.84-22.92z"/>
<path class="st3" d="M5348.43,51.09c1.25,0,2.5-0.01,3.75,0c15.22,0.14,24.05,6.51,24.22,17.47c0.18,11.17-8.4,17.82-23.88,17.55
	c-23.08-0.39-40.4,9.23-51.03,29.55c-10.65,20.36-8.32,40.12,4.98,58.78c8.21,11.52,7.52,22.4-1.46,28.44
	c-9.54,6.42-18.75,3.89-27.31-8.32c-20.97-29.91-24.2-62-7.73-94.45C5285.97,68.63,5312.78,52.23,5348.43,51.09z"/>
<path class="st3" d="M5520.15-270.73c8.72,0.75,15.3,4.55,17.07,13.61c1.81,9.21-1.35,16.49-10.48,20.23
	c-2.68,1.1-5.62,1.55-8.42,2.34c-27.02,7.67-39.09,32.94-28.16,58.99c1.13,2.69,2.68,5.24,3.48,8.01c2.55,8.8-0.46,16.05-8.19,20.25
	c-8.19,4.45-17.26,3.67-22.23-4.61c-14.44-24.07-16.41-49.73-4.64-75.31C5470.53-253.18,5492.24-266.55,5520.15-270.73z"/>
<path class="st23" d="M5169.04-53.79c0.88-0.22,1.76-0.44,2.63-0.66c8.24,2.79,16.92,4.72,24.64,8.56
	c15.11,7.51,22.35,20.74,20.04,34.01c-2.6,14.97-17.84,29.12-33.71,30.77c-5.33,0.56-10.78-0.03-16.18-0.09
	C5166.23-5.44,5166.49-29.66,5169.04-53.79z"/>
<path class="st9" d="M6168.6-98.64c-0.14,17.56-10.51,31.29-23.77,31.48c-14.36,0.2-29.15-18.06-28.65-35.37
	c0.39-13.63,12.95-21.5,33.96-21.29C6163.47-123.69,6168.75-116.48,6168.6-98.64z"/>
<path class="st9" d="M6103.46-138.76c1.06-5.95,1.07-13.44,9.03-12.43c9.08,1.15,10.52,9.38,10.69,17c0.13,5.8-0.5,13.26-8.07,12.78
	C6104.96-122.05,6105.06-131.54,6103.46-138.76z"/>
<path class="st9" d="M6168.6-143.68c-0.2,6.27-0.62,13.99-7.84,13.52c-9.99-0.65-10.73-10.44-11.3-18.1
	c-0.41-5.62,0.94-13.44,8.51-12.45C6166.86-159.56,6168.24-151.17,6168.6-143.68z"/>
<path class="st9" d="M6145.76-144.01c-0.94,6.18-1.25,13.65-9.31,12.37c-9.19-1.46-10.19-10.15-10.31-17.69
	c-0.09-5.77,0.83-13.3,8.94-12.04C6144.41-159.93,6144.36-150.98,6145.76-144.01z"/>
<path class="st27" d="M5982.68-653.81c0.24-13.35,10.55-23.69,23.48-23.56c13.85,0.14,25.05,11.98,24.49,25.9
	c-0.52,12.9-12.85,24.4-25.56,23.83C5991.69-628.24,5982.42-639.07,5982.68-653.81z"/>
<path class="st27" d="M5941.29-532.1c2.39-1.6,4.03-3.7,4.4-6.63c22.26-12.59,41.86-4.86,42.57,16.8
	c0.47,14.41-9.3,24.83-23.47,25.05c-14.29,0.22-24.25-9.5-24.41-24.05C5940.34-524.66,5940.97-528.38,5941.29-532.1z"/>
<path class="st27" d="M6238.58-574.65c-0.05-14.99,9.76-27.42,21.62-27.36c10.87,0.05,18.41,9.17,18.44,22.31
	c0.03,14.92-9.87,27.47-21.64,27.43C6246.29-552.32,6238.63-561.63,6238.58-574.65z"/>
<path class="st27" d="M6203.71-424.53c-3.48-10.23-6.99-20.32-0.89-30.98c4.7-8.22,11.25-14.16,20.72-13.08
	c9.66,1.11,14.72,8.6,16.47,17.92c2.15,11.44-3.05,20.17-11.19,27.35c-8.58,7.58-16.96,3.26-25.15-1.22
	C6203.67-424.55,6203.71-424.53,6203.71-424.53z"/>
<path class="st24" d="M5575.19,8.55c4.21,4.34,5.74,10.03,7.54,15.51c7.68,23.49-0.74,37.9-24.71,43.17
	c-11.16,2.46-22.31,1.93-33.53,1.23c-0.55-7.94,3.61-14.18,7.53-20.44C5542.76,30.9,5558.56,19.26,5575.19,8.55z"/>
<path class="st9" d="M5575.19,8.55c-16.63,10.7-32.43,22.35-43.17,39.48c-3.93,6.26-8.08,12.5-7.53,20.44
	c-32.98-3.07-26.41-0.58-14.23-24.06c9.04-17.42,22.37-31.76,38.38-43.41C5565.38-11.17,5566.79-10.79,5575.19,8.55z"/>
</svg>
