<svg width="300" height="275" viewBox="0 0 300 275" fill="none" xmlns="http://www.w3.org/2000/svg">
<g clip-path="url(#clip0)">
<path d="M261.314 146.53C261.314 158.211 258.708 168.65 253.948 177.816C250.516 184.428 245.962 190.373 240.456 195.639C238.557 197.461 236.539 199.205 234.417 200.859C234.417 200.859 234.417 200.867 234.409 200.867C213.193 217.465 181.297 225.979 145.634 225.979C141.01 225.979 136.441 225.835 131.959 225.549H131.95C101.874 223.632 75.3262 215.309 56.8589 200.867C56.8507 200.867 56.8507 200.859 56.8507 200.859C55.0312 199.435 53.2829 197.955 51.6224 196.403C37.9867 183.744 29.9609 167.058 29.9609 146.529C29.9609 139.09 30.9779 131.761 32.9167 124.664C33.6712 121.871 34.5772 119.117 35.6107 116.405L35.4359 116.54C38.0264 93.9502 40.8074 71.9734 45.4799 51.1741C47.6729 41.3952 50.2949 31.8783 53.5057 22.6882C57.6059 10.9679 71.6864 6.32892 81.8414 13.4342C96.4147 23.6352 110.519 38.0051 118.624 49.9882C126.737 48.3488 135.192 47.4739 143.909 47.4739C148.756 47.4739 153.532 47.7442 158.236 48.2617C163.234 48.8189 168.153 49.654 172.953 50.752L171.991 49.9882C180.097 38.0051 194.201 23.6352 208.774 13.4342C218.929 6.32892 233.01 10.9679 237.11 22.6882C244.921 45.0308 249.204 69.2757 252.517 94.5631C253.432 101.589 254.274 108.702 255.1 115.88C259.12 125.659 261.314 135.987 261.314 146.53Z" fill="#020002"/>
<path d="M75.4771 88.0778C75.4771 108.734 60.3001 125.475 41.5711 125.475C39.1478 125.475 36.7876 125.197 34.5068 124.663C35.2613 121.87 36.1673 119.117 37.2008 116.404L37.0261 116.54C39.6166 93.95 42.3976 71.9731 47.0701 51.1738C63.1846 54.0705 75.4771 69.491 75.4771 88.0778Z" fill="#020002"/>
<path d="M262.108 146.53C262.108 158.21 259.502 168.65 254.742 177.816C245.811 182.36 236.013 184.866 225.731 184.866C183.91 184.866 150.012 143.363 150.012 92.1686C150.012 76.2869 153.278 61.3275 159.03 48.2622C164.028 48.8194 168.947 49.6545 173.747 50.7525L172.785 49.9887C180.891 38.0056 194.995 23.6357 209.568 13.4347C219.723 6.32941 233.804 10.9684 237.904 22.6887C245.715 45.0313 249.998 69.2762 253.311 94.5635C254.226 101.589 255.068 108.703 255.894 115.88C259.915 125.658 262.108 135.986 262.108 146.53Z" fill="#020002"/>
<g opacity="0.5">
<path opacity="0.5" d="M259.843 143.648C259.843 155.328 257.237 165.768 252.478 174.934C249.045 181.546 244.492 187.49 238.985 192.758C237.086 194.58 235.068 196.322 232.946 197.977C232.946 197.977 232.946 197.986 232.938 197.986C211.722 214.584 179.826 223.097 144.163 223.097C139.539 223.097 134.97 222.954 130.488 222.668H130.48C113.634 221.594 97.9005 218.514 84.066 213.462C76.3658 210.04 69.3818 205.934 63.279 201.168C63.2708 201.168 63.2708 201.16 63.2708 201.16C61.4513 199.736 59.703 198.256 58.0425 196.704C56.7315 195.487 55.4678 194.23 54.2603 192.933C71.5433 202.672 93.5062 208.393 117.766 209.937H117.774C122.255 210.223 126.824 210.366 131.449 210.366C167.112 210.366 199.008 201.852 220.224 185.255C220.232 185.255 220.232 185.246 220.232 185.246C222.354 183.591 224.372 181.849 226.271 180.027C231.778 174.759 236.331 168.816 239.764 162.204C244.523 153.038 247.129 142.598 247.129 130.917C247.129 120.375 244.936 110.047 240.916 100.267C240.089 93.0896 239.247 85.9768 238.333 78.9503C235.186 54.9284 231.166 31.8536 224.07 10.4498C225.619 10.3063 227.177 10.3544 228.694 10.5932C231.778 12.7576 235.003 15.1158 236.479 19.0008C244.337 39.6784 248.66 66.5196 251.974 91.8061C252.887 98.8318 253.796 105.847 254.623 113.024C258.643 122.803 259.843 133.104 259.843 143.648Z" fill="#020002"/>
</g>
<g opacity="0.6">
<path opacity="0.6" d="M82.6366 13.4349C83.8764 14.3023 85.1079 15.2013 86.3394 16.1243C76.5256 11.4057 64.4079 16.1956 60.6571 26.9298C50.6131 55.6778 46.3936 87.577 42.5874 120.782L42.7621 120.646C39.0909 130.266 37.1124 140.411 37.1124 150.771C37.1124 171.3 45.1381 187.985 58.7739 200.645C60.4344 202.196 62.1826 203.677 64.0021 205.101C64.0021 205.101 64.0021 205.109 64.0104 205.109C64.7491 205.689 65.5044 206.262 66.2754 206.82C63.2401 204.965 60.3556 202.984 57.6534 200.868C57.6451 200.868 57.6451 200.86 57.6451 200.86C55.8256 199.436 54.0774 197.956 52.4169 196.404C38.7811 183.745 30.7554 167.059 30.7554 146.53C30.7554 136.17 32.7339 126.025 36.4051 116.405L36.2304 116.541C40.0366 83.3361 44.2561 51.4376 54.3001 22.6889C58.4011 10.9678 72.4816 6.32957 82.6366 13.4349Z" fill="white"/>
</g>
<g opacity="0.6">
<path opacity="0.6" d="M233.566 15.6865C227.995 13.4267 221.392 13.8488 215.925 17.6759C203.021 26.7084 190.484 39.0092 182.155 50.028C180.255 52.5424 177.103 53.7328 173.997 53.2123C173.98 53.2093 173.962 53.2063 173.945 53.2041H173.937C173.46 52.3209 172.936 51.3738 172.427 50.4591C172.864 50.5545 173.309 50.6499 173.747 50.7535L172.785 49.9897C180.89 38.0066 194.995 23.6367 209.568 13.4357C217.348 7.99239 227.431 9.44034 233.566 15.6865Z" fill="white"/>
</g>
<path d="M89.5572 60.1495C84.6627 51.1742 78.3297 42.6682 73.7682 36.9951C71.345 33.9715 66.5052 35.0777 65.6232 38.8568C63.398 48.3812 60.2675 64.4543 59.8145 81.1478V81.1561" fill="#F18688"/>
<g opacity="0.6">
<path opacity="0.6" d="M93.7935 64.8489L72.8602 78.853C69.1702 81.3216 64.569 82.0005 60.3247 80.7028L89.5575 60.1506C84.663 51.1745 78.33 42.6685 73.7685 36.9954C73.7527 36.9714 73.737 36.9556 73.713 36.9398C75.477 34.7994 78.9735 34.5689 80.9205 36.9954C84.7027 41.6997 90.6967 49.5786 95.424 57.2502C97.0057 59.8171 96.2985 63.1727 93.7935 64.8489Z" fill="white"/>
</g>
<path d="M75.5322 39.215C75.3732 39.5335 75.2464 39.8752 75.1587 40.2492C73.3152 48.1506 70.8439 60.5708 69.7947 74.1055L59.8145 81.1553V81.147C60.2675 64.4535 63.3979 48.3804 65.6232 38.8561C66.5052 35.0762 71.3442 33.9707 73.7682 36.9943C74.3322 37.6957 74.9202 38.4355 75.5322 39.215Z" fill="#ED7279"/>
<path d="M232.39 81.1558V81.1475C231.937 64.454 228.807 48.3809 226.581 38.8565C225.699 35.0767 220.86 33.9712 218.436 36.9948C213.876 42.6679 207.542 51.1739 202.647 60.1492" fill="#F18688"/>
<g opacity="0.6">
<path opacity="0.6" d="M232.39 82.1557L232.326 79.1509C231.69 63.1814 228.718 47.9997 226.581 38.8569C226.422 38.157 226.12 37.5517 225.73 37.0425C228.138 36.3185 230.959 37.6471 231.61 40.4483C233.605 48.9866 236.328 62.7879 237.196 77.5806C237.355 80.2745 235.067 82.4667 232.39 82.1557Z" fill="white"/>
</g>
<path d="M227.423 42.5891C227.145 42.8039 226.883 43.0667 226.645 43.3611C222.155 48.9472 215.941 57.2856 211.086 66.11L202.647 60.15C207.542 51.1747 213.875 42.6687 218.436 36.9956C220.86 33.972 225.699 35.0782 226.581 38.8573C226.852 40.0109 227.129 41.2523 227.423 42.5891Z" fill="#ED7279"/>
<path d="M193.925 158.243C203.291 158.243 210.884 147.922 210.884 135.19C210.884 122.457 203.291 112.136 193.925 112.136C184.559 112.136 176.966 122.457 176.966 135.19C176.966 147.922 184.559 158.243 193.925 158.243Z" fill="#020002"/>
<path d="M197.497 137.443C200.342 137.443 202.648 134.69 202.648 131.293C202.648 127.897 200.342 125.143 197.497 125.143C194.652 125.143 192.346 127.897 192.346 131.293C192.346 134.69 194.652 137.443 197.497 137.443Z" fill="white"/>
<path d="M99.5781 158.243C108.944 158.243 116.537 147.922 116.537 135.19C116.537 122.457 108.944 112.136 99.5781 112.136C90.2119 112.136 82.6191 122.457 82.6191 135.19C82.6191 147.922 90.2119 158.243 99.5781 158.243Z" fill="#020002"/>
<path d="M157.219 154.986C157.211 158.184 152.802 160.767 147.371 160.754C141.941 160.74 137.544 158.136 137.552 154.938C137.56 151.739 141.963 151.473 147.394 151.487C152.825 151.5 157.227 151.786 157.219 154.986Z" fill="#F18688"/>
<path d="M96.007 137.443C98.8518 137.443 101.158 134.69 101.158 131.293C101.158 127.897 98.8518 125.143 96.007 125.143C93.1621 125.143 90.856 127.897 90.856 131.293C90.856 134.69 93.1621 137.443 96.007 137.443Z" fill="white"/>
<path d="M59.8149 83.9407C59.4309 83.9407 59.0447 83.8611 58.6809 83.6982C57.6797 83.2498 57.0347 82.254 57.0347 81.156C57.0347 81.1305 57.0347 81.0974 57.0354 81.0726C57.4839 64.5421 60.4809 48.647 62.9162 38.2229C63.5679 35.4269 65.7114 33.294 68.5074 32.6579C71.2944 32.0241 74.1459 33.0169 75.9377 35.2519C80.4902 40.9153 86.9747 49.603 91.9989 58.8149C92.3551 59.4683 92.4354 60.2381 92.2209 60.9515C92.0071 61.665 91.5159 62.2628 90.8589 62.6113C80.8291 67.9269 71.0079 74.8648 61.6697 83.2318C61.1492 83.6974 60.4862 83.9407 59.8149 83.9407ZM70.1769 38.0412C69.9962 38.0412 69.8432 38.0659 69.7389 38.0892C69.3962 38.1673 68.5727 38.4602 68.3319 39.4906C66.2724 48.3037 63.8027 61.1122 62.8959 74.8227C70.2879 68.6892 77.9454 63.4036 85.7491 59.0515C81.1494 51.1095 75.6092 43.7248 71.6027 38.7411C71.1452 38.1711 70.5879 38.0412 70.1769 38.0412Z" fill="#020002"/>
<path d="M146.429 229.162C113.015 229.162 84.1419 222.013 62.9274 208.486C39.8011 193.741 27.5776 172.317 27.5776 146.53C27.5776 136.301 29.4241 126.113 33.0676 116.236C33.0691 116.216 33.0714 116.197 33.0736 116.177C36.8829 82.9464 41.1429 50.71 51.3009 21.6376C53.5981 15.0677 58.6996 10.0795 65.2966 7.94889C71.8396 5.83554 78.8236 6.8847 84.4576 10.826C98.0229 20.3218 112.092 34.1299 120.85 46.4705C137.264 43.4327 154.499 43.5874 171.038 46.9234C179.77 34.4686 194.018 20.4382 207.749 10.826C213.383 6.8847 220.365 5.83554 226.91 7.94889C233.507 10.0795 238.608 15.0685 240.906 21.6368C250.953 50.3946 255.23 82.2442 259.009 115.092C263.176 125.378 265.288 135.952 265.288 146.529C265.288 172.316 253.063 193.74 229.934 208.486C208.718 222.013 179.843 229.162 146.429 229.162ZM39.4741 116.156C39.5461 116.671 39.4929 117.21 39.2979 117.725C35.7384 127.119 33.9346 136.81 33.9346 146.53C33.9346 170.032 45.1411 189.599 66.3421 203.117C86.2456 215.808 114.688 222.797 146.429 222.797C178.172 222.797 206.615 215.808 226.52 203.117C247.724 189.599 258.932 170.032 258.932 146.53C258.932 137.163 257.128 127.782 253.568 118.618C253.166 118.151 252.894 117.562 252.819 116.903C252.8 116.74 252.782 116.581 252.764 116.418C252.744 116.303 252.731 116.188 252.724 116.071C248.981 83.5067 244.765 51.9529 234.907 23.7389C233.273 19.0676 229.647 15.5198 224.96 14.0065C220.327 12.5098 215.381 13.2518 211.391 16.0433C198.05 25.3821 184.227 39.0325 175.929 51.0284C175.81 51.8102 175.402 52.526 174.776 53.0284C174.026 53.6307 173.042 53.8627 172.102 53.6532C154.992 49.8674 137.013 49.6819 120.05 53.108C118.799 53.3633 117.508 52.8361 116.789 51.7734C108.556 39.601 94.4364 25.5766 80.8171 16.0433C76.8294 13.2525 71.8831 12.5105 67.2489 14.0065C62.5621 15.5206 58.9366 19.0684 57.3024 23.7404C47.4346 51.9777 43.2196 83.5615 39.4741 116.156Z" fill="#020002"/>
<path d="M232.391 83.941C231.774 83.941 231.16 83.7352 230.656 83.3334C220.111 74.9138 210.481 68.1112 201.215 62.5372C199.936 61.7681 199.492 60.1264 200.206 58.8151C205.228 49.6062 211.714 40.917 216.27 35.2491C218.059 33.0179 220.906 32.0235 223.698 32.6582C226.495 33.2943 228.637 35.4271 229.29 38.2232C231.526 47.8008 235.007 79.5078 235.155 80.8528C235.276 81.9711 234.715 83.0525 233.731 83.5955C233.312 83.8276 232.851 83.941 232.391 83.941ZM206.388 59.1711C213.58 63.6231 220.995 68.7968 228.877 74.8635C227.71 64.818 225.43 46.1546 223.874 39.4916C223.633 38.4605 222.81 38.1676 222.466 38.0895C222.125 38.0129 221.261 37.9205 220.605 38.7383C216.576 43.7521 211 51.1864 206.388 59.1711Z" fill="#020002"/>
<g opacity="0.2">
<path opacity="0.2" d="M83.408 95.03C80.7665 93.0384 80.843 88.4722 83.5805 84.8328C86.3173 81.1926 90.6778 79.8573 93.32 81.849C95.9615 83.8407 94.2523 87.176 91.5155 90.8154C88.778 94.4555 86.0495 97.0217 83.408 95.03Z" fill="white"/>
</g>
<path d="M241.253 163.915C244.448 163.3 247.587 163.158 250.709 163.159C253.828 163.179 256.926 163.384 260.004 163.749C263.083 164.112 266.142 164.642 269.179 165.357C272.214 166.089 275.232 166.967 278.193 168.322C274.997 168.943 271.857 169.086 268.736 169.084C265.617 169.064 262.518 168.859 259.441 168.488C256.363 168.117 253.304 167.589 250.267 166.874C247.232 166.14 244.214 165.264 241.253 163.915Z" fill="#020002"/>
<path d="M239.841 178.297C243.07 178.7 246.099 179.534 249.068 180.499C252.029 181.482 254.913 182.634 257.728 183.931C260.545 185.228 263.292 186.677 265.96 188.295C268.621 189.929 271.222 191.696 273.62 193.9C270.389 193.503 267.359 192.669 264.391 191.704C261.43 190.721 258.546 189.569 255.733 188.266C252.919 186.963 250.172 185.515 247.504 183.896C244.843 182.261 242.242 180.496 239.841 178.297Z" fill="#020002"/>
<path d="M50.8379 163.45C47.8702 164.784 44.8484 165.646 41.8102 166.365C38.7697 167.065 35.7082 167.58 32.6287 167.935C29.5492 168.291 26.4502 168.481 23.3309 168.485C20.2094 168.473 17.0707 168.313 13.8779 167.677C16.8449 166.337 19.8667 165.473 22.9049 164.756C25.9454 164.056 29.0069 163.541 32.0872 163.193C35.1674 162.843 38.2657 162.653 41.3857 162.648C44.5079 162.662 47.6459 162.82 50.8379 163.45Z" fill="#020002"/>
<path d="M52.1801 177.839C50.0996 180.253 47.7731 182.259 45.3731 184.143C42.9626 186.01 40.4554 187.717 37.8664 189.287C35.2774 190.858 32.6014 192.286 29.8302 193.555C27.0492 194.807 24.1924 195.935 21.0874 196.651C23.1649 194.232 25.4899 192.224 27.8914 190.342C30.3019 188.475 32.8092 186.768 35.4019 185.203C37.9947 183.637 40.6699 182.209 43.4419 180.941C46.2221 179.689 49.0781 178.561 52.1801 177.839Z" fill="#020002"/>
<path d="M74.6806 216.54C73.5158 242.793 74.6986 266.634 95.5426 270.259C96.7876 270.34 97.9981 270.353 99.1583 270.292C107.748 269.858 113.892 265.44 117.051 256.179C118.895 250.784 118.926 244.945 117.479 239.431C115.325 231.187 113.507 223.124 112.214 215.345L89.8681 216.052L74.6806 216.54Z" fill="#020002"/>
<g opacity="0.6">
<path opacity="0.6" d="M103.229 269.738C101.939 270.039 100.581 270.219 99.155 270.294C98 270.354 96.7917 270.339 95.5467 270.257C74.6982 266.636 73.5125 242.791 74.6832 216.536L83.1155 216.266C81.968 242.154 83.138 265.682 103.229 269.738Z" fill="#020002"/>
</g>
<path d="M97.6285 273.513C96.8793 273.513 96.1158 273.487 95.3358 273.435C95.224 273.428 95.1123 273.414 95.002 273.396C71.1693 269.252 70.3758 241.801 71.5038 216.396C71.5818 214.64 73.0623 213.282 74.8203 213.358C76.5738 213.436 77.932 214.923 77.854 216.679C76.573 245.547 79.1538 264.062 95.9245 267.094C105.315 267.672 111.073 263.868 114.044 255.152C115.622 250.522 115.747 245.363 114.405 240.234C112.05 231.242 110.309 223.271 109.081 215.864C108.794 214.13 109.965 212.491 111.696 212.203C113.43 211.915 115.065 213.089 115.352 214.822C116.547 222.034 118.249 229.819 120.555 238.62C122.214 244.963 122.043 251.391 120.06 257.208C116.412 267.913 108.681 273.513 97.6285 273.513Z" fill="#45414F"/>
<path d="M106.989 251.489C107.562 253.219 108.129 254.985 108.396 256.852C108.687 258.709 108.804 260.646 108.55 262.631C108.297 264.607 107.652 266.639 106.46 268.471C105.89 269.403 105.12 270.23 104.28 270.998C103.405 271.735 102.409 272.368 101.293 272.842L101.202 272.881C99.7781 273.486 98.1348 272.82 97.5311 271.395C96.9273 269.97 97.5918 268.324 99.0153 267.72C99.1856 267.647 99.3731 267.591 99.5471 267.554C100.11 267.439 100.692 267.228 101.259 266.926C101.8 266.586 102.366 266.211 102.831 265.691C103.803 264.699 104.57 263.37 105.055 261.872C105.546 260.372 105.768 258.721 105.82 257.036C105.899 255.344 105.683 253.622 105.451 251.893L105.445 251.847C105.387 251.411 105.693 251.01 106.128 250.952C106.513 250.899 106.871 251.133 106.989 251.489Z" fill="#45414F"/>
<path d="M91.437 256.07C91.6725 257.657 91.9245 259.235 92.4203 260.695C92.8883 262.152 93.507 263.536 94.368 264.595C95.2118 265.676 96.264 266.377 97.4115 266.767C98.556 267.175 99.8663 267.228 101.252 267.14C102.794 267.042 104.123 268.214 104.221 269.758C104.318 271.302 103.148 272.633 101.606 272.73C101.417 272.742 101.232 272.736 101.052 272.711L101.007 272.704C99.1455 272.44 97.155 271.957 95.3782 270.865C93.6 269.806 92.1585 268.202 91.3223 266.472C90.4493 264.745 90.084 262.95 89.8913 261.219C89.6775 259.479 89.7555 257.776 89.8478 256.101C89.8718 255.661 90.2475 255.325 90.6863 255.349C91.0703 255.37 91.3762 255.661 91.4302 256.028L91.437 256.07Z" fill="#45414F"/>
<path d="M220.896 215.713C222.061 241.967 220.878 265.807 200.034 269.432C198.789 269.513 197.579 269.527 196.418 269.465C187.829 269.032 181.685 264.614 178.526 255.352C176.681 249.958 176.651 244.118 178.097 238.605C180.252 230.36 182.069 222.297 183.363 214.518L205.709 215.226L220.896 215.713Z" fill="#020002"/>
<g opacity="0.6">
<path opacity="0.6" d="M204.742 268.74C203.797 269.018 202.806 269.251 201.771 269.431C200.526 269.514 199.318 269.529 198.155 269.461C189.565 269.033 183.421 264.616 180.262 255.353C178.424 249.96 178.387 244.123 179.835 238.609C181.988 230.36 183.811 222.3 185.101 214.517C188.08 214.612 190.285 217.353 189.708 220.28C188.576 226.018 187.195 231.891 185.634 237.858C184.186 243.372 184.216 249.209 186.061 254.602C189.22 263.865 195.364 268.282 203.954 268.71C204.217 268.725 204.479 268.74 204.742 268.74Z" fill="#020002"/>
</g>
<path d="M197.948 272.686C186.895 272.686 179.166 267.086 175.517 256.383C173.534 250.564 173.363 244.137 175.023 237.795C177.33 228.983 179.031 221.198 180.225 213.997C180.512 212.263 182.158 211.091 183.881 211.378C185.612 211.666 186.783 213.305 186.496 215.039C185.27 222.435 183.529 230.407 181.172 239.409C179.829 244.538 179.954 249.696 181.533 254.326C184.505 263.042 190.271 266.846 199.652 266.268C216.423 263.236 219.003 244.722 217.723 215.853C217.645 214.097 219.004 212.61 220.758 212.532C222.501 212.457 223.996 213.814 224.074 215.57C225.2 240.975 224.406 268.426 200.575 272.57C200.464 272.589 200.353 272.602 200.241 272.61C199.462 272.661 198.697 272.686 197.948 272.686ZM200.031 269.433H200.038H200.031Z" fill="#45414F"/>
<path d="M190.126 251.066C189.894 252.795 189.678 254.517 189.757 256.209C189.808 257.894 190.03 259.546 190.522 261.045C191.008 262.543 191.773 263.871 192.746 264.864C193.211 265.384 193.777 265.759 194.318 266.098C194.885 266.401 195.467 266.611 196.03 266.727C197.545 267.037 198.521 268.519 198.211 270.035C197.901 271.552 196.421 272.53 194.906 272.219C194.725 272.182 194.553 272.128 194.389 272.06L194.284 272.015C193.168 271.541 192.172 270.908 191.297 270.17C190.456 269.402 189.687 268.575 189.117 267.644C187.924 265.812 187.279 263.78 187.027 261.803C186.772 259.819 186.889 257.882 187.18 256.024C187.447 254.157 188.015 252.392 188.588 250.662C188.726 250.245 189.176 250.019 189.594 250.157C189.963 250.279 190.182 250.646 190.132 251.019L190.126 251.066Z" fill="#45414F"/>
<path d="M205.729 255.275C205.821 256.95 205.899 258.653 205.685 260.392C205.493 262.123 205.128 263.918 204.254 265.645C203.418 267.375 201.977 268.979 200.198 270.038C198.422 271.13 196.432 271.614 194.57 271.877L194.54 271.882C193.01 272.099 191.594 271.033 191.378 269.501C191.161 267.97 192.226 266.552 193.755 266.335C193.943 266.308 194.143 266.302 194.324 266.313C195.71 266.401 197.021 266.348 198.165 265.94C199.313 265.551 200.365 264.849 201.209 263.768C202.07 262.709 202.688 261.325 203.156 259.867C203.652 258.408 203.904 256.831 204.14 255.242L204.146 255.2C204.21 254.765 204.615 254.464 205.05 254.529C205.432 254.586 205.709 254.904 205.729 255.275Z" fill="#45414F"/>
<ellipse rx="21.1022" ry="24.2106" transform="matrix(0.999515 -0.031148 0.0310642 0.999517 96.5555 135.33)" fill="#FFCF52"/>
<ellipse rx="16.7027" ry="19.6101" transform="matrix(0.999515 -0.031148 0.0310643 0.999517 100.95 135.115)" fill="#020002"/>
<ellipse rx="3.97127" ry="4.01559" transform="matrix(0.999515 -0.031148 0.0310643 0.999517 92.4246 125.239)" fill="white"/>
<ellipse rx="21.1022" ry="24.2105" transform="matrix(0.999515 -0.031148 0.0310642 0.999517 196.995 135.56)" fill="#FFCF52"/>
<ellipse rx="16.7027" ry="19.6101" transform="matrix(0.999515 -0.031148 0.0310642 0.999517 192.909 135.687)" fill="#020002"/>
<ellipse rx="4.01019" ry="4.0156" transform="matrix(0.999515 -0.0311481 0.0310641 0.999517 183.846 124.814)" fill="white"/>
</g>
<defs>
<clipPath id="clip0">
<rect width="300" height="274.044" fill="white"/>
</clipPath>
</defs>
</svg>
